<svg width="376" height="141" viewBox="0 0 376 141" fill="none" xmlns="http://www.w3.org/2000/svg">
    <g clip-path="url(#clip0_2513_6241)">
        <path fill-rule="evenodd" clip-rule="evenodd"
            d="M314.534 71.635C315.26 69.598 315.623 67.0164 315.623 63.9305C315.623 60.7438 315.22 58.1017 314.413 55.9235C313.465 53.1805 311.912 51.0023 309.754 49.3686C307.596 47.7349 305.055 46.9282 302.13 46.9282C298.964 46.9282 296.523 47.9769 294.809 50.0745C294.728 50.1955 294.628 50.2358 294.527 50.1955C294.426 50.1552 294.365 50.0543 294.365 49.8728V41.301C294.365 40.5749 294.002 40.2119 293.276 40.2119H286.399C285.673 40.2119 285.31 40.5749 285.31 41.301V79.4606C285.31 80.1866 285.673 80.5497 286.399 80.5497H293.276C294.002 80.5497 294.365 80.1866 294.365 79.4606V77.726C294.365 77.5647 294.426 77.4638 294.527 77.4437C294.628 77.4235 294.728 77.484 294.809 77.605C296.564 79.9244 299.004 81.0741 302.13 81.0741C305.035 81.0741 307.637 80.2068 309.875 78.4723C312.114 76.7378 313.687 74.4587 314.534 71.635ZM304.551 57.3555C305.579 59.0698 306.104 61.3287 306.104 64.112C306.104 66.6533 305.66 68.7509 304.752 70.4047C303.724 72.2401 302.151 73.1679 300.053 73.1679C298.157 73.1679 296.705 72.2401 295.676 70.4047C294.809 68.8114 294.386 66.6937 294.386 64.0314C294.386 61.2077 294.829 59.0093 295.737 57.416C296.806 55.742 298.258 54.915 300.053 54.915C302.009 54.915 303.522 55.7218 304.551 57.3555Z"
            fill="#8746FF" />
        <path fill-rule="evenodd" clip-rule="evenodd"
            d="M127.266 70.5245C128.194 73.7919 129.969 76.3735 132.53 78.2492C135.112 80.1451 138.218 81.093 141.888 81.0728C145.438 81.0728 148.484 80.1047 151.045 78.2088C153.586 76.313 155.361 73.691 156.35 70.3429C156.894 68.2454 157.176 66.0873 157.176 63.8486C157.176 61.3073 156.854 59.0686 156.208 57.092C155.22 53.9658 153.465 51.4851 150.964 49.69C148.464 47.895 145.438 46.9874 141.929 46.9874C138.278 46.9874 135.172 47.895 132.631 49.69C130.07 51.5052 128.315 53.986 127.327 57.1525C126.681 59.0887 126.358 61.3476 126.358 63.9696C126.358 66.3294 126.661 68.5076 127.266 70.5245ZM147.516 68.4874C147.092 69.9799 146.386 71.1497 145.398 72.017C144.41 72.8842 143.22 73.3078 141.848 73.3078C140.396 73.3078 139.166 72.8842 138.157 72.017C137.149 71.1699 136.423 69.9799 135.999 68.4874C135.636 67.2571 135.475 65.7445 135.475 63.9898C135.475 62.1947 135.656 60.6821 135.999 59.4316C136.423 57.9794 137.129 56.8298 138.117 56.0231C139.105 55.1961 140.315 54.7928 141.727 54.7928C143.179 54.7928 144.41 55.2163 145.398 56.0231C146.386 56.8298 147.092 57.9794 147.516 59.4316C147.859 60.6619 148.04 62.1947 148.04 63.9898C148.04 65.8251 147.859 67.3378 147.516 68.4874Z"
            fill="#8746FF" />
        <path
            d="M93.0999 71.4316C94.1688 74.4368 95.9639 76.7965 98.4648 78.5109C100.966 80.2252 103.931 81.0925 107.359 81.0522C110.748 81.0522 113.733 80.2454 116.334 78.6117C118.936 76.9781 120.671 74.7191 121.578 71.8552C121.699 71.5526 121.82 71.0686 121.901 70.3828C121.941 70.0803 121.881 69.8383 121.74 69.6164C121.578 69.4148 121.336 69.2534 120.993 69.1727L114.237 68.1441C113.934 68.1037 113.672 68.1844 113.41 68.4264C113.168 68.6483 113.007 68.8702 112.966 69.0315L112.906 69.3542C112.523 70.5644 111.817 71.5123 110.808 72.2182C109.8 72.9241 108.63 73.2872 107.299 73.2872C105.927 73.2872 104.757 72.9241 103.789 72.1981C102.841 71.472 102.156 70.4635 101.772 69.1727C101.349 67.9021 101.127 66.1474 101.127 63.9086C101.127 61.6901 101.369 59.9354 101.833 58.6446C102.216 57.4546 102.882 56.5066 103.83 55.8209C104.778 55.1351 105.927 54.7923 107.299 54.7923C108.711 54.7923 109.941 55.1553 110.97 55.8814C111.998 56.6075 112.664 57.5353 112.966 58.6446L113.168 59.5521C113.269 60.0564 113.551 60.3186 114.076 60.3186L114.398 60.258L121.155 59.2294C121.8 59.1084 122.123 58.7656 122.123 58.2008V58.0798C122.022 57.3537 121.861 56.6882 121.599 56.0831C120.731 53.4611 119.017 51.3031 116.415 49.5887C113.813 47.8744 110.808 47.0071 107.379 47.0071C103.951 47.0071 100.966 47.834 98.4446 49.5081C95.9033 51.1821 94.1285 53.4611 93.0999 56.3856C92.3738 58.4832 92.0107 60.9842 92.0107 63.8481C92.0107 66.7525 92.3738 69.2937 93.0999 71.4316Z"
            fill="#8746FF" />
        <path
            d="M168.31 79.8023C166.172 78.9955 164.518 77.8459 163.368 76.3937C162.219 74.9415 161.634 73.2877 161.634 71.4322V71.1095C161.634 70.3834 161.997 70.0204 162.723 70.0204H169.217C169.943 70.0204 170.306 70.1414 170.306 70.4036V70.8473C170.306 71.7952 170.831 72.602 171.839 73.2676C172.868 73.9331 174.179 74.2558 175.772 74.2558C177.224 74.2558 178.414 73.9734 179.302 73.4087C180.209 72.8642 180.653 72.1179 180.653 71.2305C180.653 70.4641 180.27 69.8792 179.483 69.496C178.717 69.1127 177.446 68.7094 175.692 68.2656C173.594 67.7009 172.021 67.2169 170.992 66.7933C168.209 65.8454 165.99 64.6958 164.377 63.3243C162.743 61.9528 161.936 59.9763 161.936 57.4148C161.936 54.2483 163.167 51.7272 165.668 49.8716C168.148 48.0161 171.416 47.0682 175.449 47.0682C178.192 47.0682 180.613 47.5119 182.69 48.3791C184.768 49.2665 186.381 50.4969 187.51 52.07C188.64 53.6634 189.205 55.4584 189.205 57.4753C189.205 57.6972 189.104 57.8787 188.922 58.0199C188.721 58.1611 188.458 58.2417 188.116 58.2417H181.823C181.097 58.2417 180.734 58.1207 180.734 57.8585V57.4753C180.734 56.5274 180.27 55.7408 179.322 55.0954C178.374 54.45 177.103 54.1273 175.53 54.1273C174.118 54.1273 172.949 54.3895 172.021 54.8937C171.093 55.4181 170.649 56.124 170.649 57.0114C170.649 57.8787 171.093 58.5039 171.96 58.9476C172.827 59.3712 174.28 59.8351 176.297 60.2989C177.547 60.5611 178.737 60.8838 179.907 61.267C182.993 62.1746 185.413 63.3243 187.168 64.7361C188.922 66.1479 189.81 68.2052 189.81 70.9078C189.81 74.0743 188.539 76.5551 186.018 78.3299C183.497 80.1048 180.108 80.9922 175.853 80.9922C172.949 81.0326 170.448 80.609 168.31 79.8023Z"
            fill="#8746FF" />
        <path
            d="M242.794 58.5235C242.794 54.873 241.846 52.0493 239.97 50.0324C238.074 48.0155 235.472 47.0071 232.104 47.0071C230.087 47.0071 228.272 47.4306 226.699 48.2979C225.126 49.145 223.835 50.4358 222.846 52.1502C222.766 52.2712 222.665 52.3519 222.564 52.372C222.463 52.3922 222.383 52.3115 222.342 52.1502C221.475 50.4761 220.265 49.2055 218.671 48.3181C217.098 47.4508 215.223 47.0071 213.085 47.0071C209.434 47.0071 206.732 48.2777 204.977 50.7989C204.896 50.9804 204.795 51.0409 204.694 51.0005C204.594 50.9602 204.533 50.8593 204.533 50.6778V48.6206C204.533 47.8945 204.17 47.5315 203.444 47.5315H196.566C195.84 47.5315 195.477 47.8945 195.477 48.6206V79.479C195.477 80.2051 195.84 80.5681 196.566 80.5681H203.444C204.17 80.5681 204.533 80.2051 204.533 79.479V59.4311C204.695 57.979 205.239 56.8294 206.167 56.0226C207.095 55.1957 208.244 54.7923 209.616 54.7923C211.128 54.7923 212.338 55.3167 213.286 56.3655C214.234 57.4142 214.698 58.8059 214.698 60.5202V79.479C214.698 80.2051 215.061 80.5681 215.787 80.5681H222.604C223.33 80.5681 223.694 80.2051 223.694 79.479V60.4597C223.694 58.7454 224.157 57.3739 225.105 56.3453C226.053 55.3369 227.284 54.8124 228.776 54.8124C230.289 54.8124 231.479 55.3167 232.386 56.3453C233.294 57.3739 233.738 58.7656 233.738 60.5202V79.479C233.738 80.2051 234.101 80.5681 234.827 80.5681H241.704C242.43 80.5681 242.794 80.2051 242.794 79.479V58.5235Z"
            fill="#8746FF" />
        <path fill-rule="evenodd" clip-rule="evenodd"
            d="M254.612 78.2492C252.051 76.3735 250.276 73.7919 249.348 70.5245C248.743 68.5076 248.441 66.3294 248.441 63.9696C248.441 61.3476 248.764 59.0887 249.409 57.1525C250.397 53.986 252.152 51.5052 254.713 49.69C257.255 47.895 260.361 46.9874 264.011 46.9874C267.521 46.9874 270.546 47.895 273.047 49.69C275.548 51.4851 277.302 53.9658 278.291 57.092C278.936 59.0686 279.259 61.3073 279.259 63.8486C279.259 66.0873 278.976 68.2454 278.432 70.3429C277.444 73.691 275.669 76.313 273.127 78.2088C270.566 80.1047 267.521 81.0728 263.971 81.0728C260.3 81.093 257.194 80.1451 254.612 78.2492ZM267.46 72.017C268.448 71.1497 269.154 69.9799 269.578 68.4874C269.921 67.3378 270.102 65.8251 270.102 63.9898C270.102 62.1947 269.921 60.6619 269.578 59.4316C269.154 57.9794 268.448 56.8298 267.46 56.0231C266.472 55.2163 265.262 54.7928 263.789 54.7928C262.377 54.7928 261.167 55.1961 260.179 56.0231C259.191 56.8298 258.485 57.9794 258.061 59.4316C257.718 60.6821 257.537 62.1947 257.537 63.9898C257.537 65.7445 257.718 67.2571 258.061 68.4874C258.485 69.9799 259.211 71.1699 260.219 72.017C261.228 72.8842 262.458 73.3078 263.91 73.3078C265.302 73.3078 266.492 72.8842 267.46 72.017Z"
            fill="#8746FF" />
        <path fill-rule="evenodd" clip-rule="evenodd"
            d="M343.436 70.4841C343.698 70.1816 343.981 70.0404 344.283 70.0404C344.545 70.0404 344.767 70.1413 344.989 70.3631L348.66 73.8927C348.922 74.1549 349.043 74.4171 349.043 74.6591C349.043 74.9617 348.962 75.2238 348.781 75.4255C347.369 77.1802 345.554 78.5719 343.355 79.5803C341.157 80.5887 338.737 81.093 336.115 81.093C332.162 81.093 328.894 80.0845 326.313 78.0676C323.711 76.0508 321.976 73.2876 321.069 69.7782C320.564 67.9025 320.302 65.9058 320.302 63.8082C320.302 61.3275 320.544 59.2299 321.008 57.5156C321.855 54.349 323.59 51.7876 326.172 49.8715C328.773 47.9353 331.839 46.9874 335.409 46.9874C339.604 46.9874 342.932 48.2379 345.413 50.7186C347.873 53.1994 349.467 56.6886 350.213 61.2064C350.374 62.6183 350.515 64.1914 350.596 65.9058C350.596 66.6319 350.233 66.9949 349.507 66.9949H329.762C329.499 66.9949 329.378 67.116 329.378 67.3782C329.499 68.2858 329.661 68.9311 329.822 69.3749C330.246 70.706 331.093 71.7145 332.363 72.4204C333.634 73.1263 335.167 73.4691 336.962 73.4691C339.765 73.3078 341.944 72.3195 343.436 70.4841ZM331.839 55.781C330.911 56.4466 330.286 57.3744 329.943 58.5845C329.721 59.3913 329.6 59.9358 329.56 60.198C329.52 60.4602 329.62 60.5812 329.883 60.5812H340.814C341.036 60.5812 341.137 60.5006 341.137 60.319C341.137 59.8552 341.056 59.3509 340.875 58.8467C340.491 57.5962 339.826 56.6079 338.878 55.8819C337.93 55.1558 336.74 54.7928 335.268 54.7928C333.896 54.7928 332.767 55.1155 331.839 55.781Z"
            fill="#8746FF" />
        <path
            d="M367.558 54.7931H373.347C374.073 54.7931 374.436 54.43 374.436 53.704V48.6214C374.436 47.8953 374.073 47.5323 373.347 47.5323H367.558C367.316 47.5323 367.175 47.4113 367.175 47.1491V41.3404C367.175 40.6144 366.812 40.2513 366.086 40.2513H359.531C358.805 40.2513 358.442 40.6144 358.442 41.3404V47.1491C358.442 47.4113 358.321 47.5323 358.059 47.5323H354.771C354.045 47.5323 353.682 47.8953 353.682 48.6214V53.704C353.682 54.43 354.045 54.7931 354.771 54.7931H358.059C358.321 54.7931 358.442 54.9141 358.442 55.1763V72.0173C358.482 75.2645 359.39 77.5033 361.144 78.6932C362.899 79.8832 365.561 80.4883 369.111 80.4883C369.837 80.4883 371.007 80.4479 372.641 80.3672C373.367 80.2866 373.73 79.9034 373.73 79.2176V73.6913C373.73 72.9653 373.367 72.6022 372.641 72.6022H370.846C369.555 72.6022 368.627 72.2795 368.042 71.6139C367.457 70.9484 367.175 69.8996 367.175 68.4878V55.1763C367.175 54.9141 367.296 54.7931 367.558 54.7931Z"
            fill="#8746FF" />
        <path
            d="M63.4915 13.1242L25.8362 54.5511C17.1635 64.091 15.4895 78.068 21.6612 89.3828L46.0857 134.158C50.8053 142.81 63.9957 138.151 62.241 128.45L53.6088 80.9925C52.3785 74.1956 53.5079 67.1567 56.8156 61.0858L77.529 23.1078C82.4301 14.1125 70.3893 5.5407 63.4915 13.1242Z"
            fill="#8746FF" />
        <path
            d="M45.8842 3.62442L6.83725 51.344C-2.27908 62.4772 -2.27908 78.5115 6.83725 89.6649L45.8842 137.384C52.782 145.815 66.1943 138.191 62.4832 127.945L45.3598 80.8309C42.9395 74.155 42.9395 66.8337 45.3598 60.1578L62.4832 13.0634C66.1943 2.81765 52.782 -4.82635 45.8842 3.62442Z"
            fill="#00FFFF" />
    </g>
    <defs>
        <clipPath id="clip0_2513_6241">
            <rect width="375.06" height="141" fill="white" />
        </clipPath>
    </defs>
</svg>