<svg width="135" height="49" viewBox="0 0 135 49" fill="none" xmlns="http://www.w3.org/2000/svg">
<path d="M70.1714 21.653L68.0671 25.8211H70.7793L70.1714 21.653ZM77.5065 32.1937H71.582L71.2413 29.9016H66.0964L64.8916 32.1937H59.0039L67.8232 16.2607H74.5259L77.5065 32.1937Z" fill="white"/>
<path d="M51.6591 32.1937L49.2618 25.9306L46.9994 28.1133L46.2457 32.1937H40.418L43.3618 16.2607H49.1895L48.0583 22.3636L53.9569 16.2607H61.1952L54.7365 22.8306L58.4831 32.1937H51.6591Z" fill="white"/>
<path d="M29.8685 27.5855C30.9261 27.5855 31.7656 27.3281 32.398 26.7886C33.0426 26.2614 33.4692 25.5015 33.6396 24.5087L33.7486 23.9446C33.9312 22.9518 33.7977 22.1919 33.3588 21.6647C32.9091 21.1389 32.1677 20.8692 31.1087 20.8692C30.0388 20.8692 29.187 21.1389 28.5424 21.6647C27.8977 22.1919 27.4957 22.9518 27.313 23.9446L27.204 24.5087C27.0214 25.5015 27.1549 26.2614 27.5938 26.7886C28.0313 27.3281 28.7972 27.5855 29.8685 27.5855ZM28.9199 32.5724C27.3989 32.5724 26.0973 32.3766 25.0138 31.985C23.9194 31.6044 23.0445 31.0649 22.3862 30.3542C21.7306 29.6559 21.2795 28.8343 21.0615 27.8553C20.842 26.8981 20.8298 25.8328 21.0492 24.6799L21.2073 23.7611C21.4144 22.5972 21.8274 21.5429 22.4107 20.5748C22.9954 19.619 23.7368 18.7974 24.6622 18.0868C25.574 17.3994 26.6452 16.8613 27.8855 16.4683C29.1134 16.089 30.4886 15.8809 32.0096 15.8809C33.5292 15.8809 34.8553 16.089 35.9388 16.4683C37.0332 16.8613 37.9218 17.3994 38.5773 18.0868C39.222 18.7974 39.6608 19.619 39.8912 20.5748C40.1229 21.5429 40.1229 22.5972 39.9034 23.7611L39.7453 24.6799C39.5273 25.8328 39.1252 26.8981 38.5419 27.8553C37.9695 28.8343 37.2158 29.6559 36.3027 30.3542C35.3909 31.0649 34.3088 31.6044 33.0794 31.985C31.8392 32.3766 30.4518 32.5724 28.9199 32.5724Z" fill="white"/>
<path d="M8.53728 25.6486C8.41598 26.2867 8.50184 26.7522 8.78123 27.0699C9.04836 27.3766 9.55944 27.5491 10.29 27.5491C11.0436 27.5491 11.616 27.3889 12.0045 27.0836C12.3943 26.7892 12.6369 26.3236 12.7472 25.7225L13.5854 21.2367H5.0142L5.92598 16.2607H20.4353L18.6458 25.9676C18.4646 26.985 18.1239 27.9038 17.6618 28.7253C17.1862 29.5346 16.5783 30.2206 15.8124 30.7971C15.0464 31.3599 14.1333 31.8021 13.0757 32.1075C11.9922 32.4019 10.7765 32.573 9.38908 32.573C7.99076 32.573 6.81049 32.4019 5.84965 32.1075C4.90108 31.8021 4.14604 31.3475 3.59952 30.7724C3.05164 30.1713 2.68638 29.4483 2.52829 28.5912C2.38246 27.7326 2.39472 26.7522 2.58962 25.6486H8.53728Z" fill="white"/>
<path d="M116.391 21.3093L117.316 16.2402H134.329L133.404 21.3093H127.936L125.915 32.2102H119.862L121.883 21.3093H116.391Z" fill="#69F67F"/>
<path d="M97.1758 32.2102L100.124 16.2402H114.847L114.043 20.6219H104.995L104.666 22.3527H113.167L112.473 25.9991H103.996L103.68 27.7915H112.972L112.155 32.2102H97.1758Z" fill="#69F67F"/>
<path d="M88.2097 27.8531C88.8802 27.8531 89.3545 27.7669 89.623 27.5697C89.8901 27.3862 90.0482 27.1411 90.1218 26.8221C90.1709 26.5386 90.0973 26.2935 89.8901 26.0977C89.6829 25.9005 89.2823 25.8143 88.6485 25.8143H84.9455L84.5557 27.8531H88.2097ZM85.9077 20.5973L85.5302 22.6594H89.1719C89.6352 22.6594 90.0005 22.5499 90.2554 22.365C90.4993 22.1569 90.6574 21.9118 90.7065 21.6037C90.7678 21.3217 90.6942 21.0766 90.5239 20.8794C90.329 20.6959 90.0005 20.5973 89.4881 20.5973H85.9077ZM92.1798 24.2314C92.6799 24.3176 93.1665 24.4518 93.6285 24.6244C94.1164 24.8202 94.5308 25.0666 94.8837 25.3734C95.2367 25.6924 95.5052 26.0731 95.6878 26.5017C95.8705 26.9439 95.9073 27.4478 95.7969 28.0366C95.6879 28.6021 95.4684 29.1416 95.1154 29.6442C94.7734 30.1481 94.2745 30.5903 93.6421 30.9587C93.0084 31.3393 92.2166 31.6461 91.2789 31.8788C90.329 32.1007 89.2087 32.2102 87.8812 32.2102H78.1992L81.1458 16.2402H90.8278C92.0339 16.2402 93.0452 16.3498 93.837 16.5839C94.6275 16.8044 95.2613 17.0988 95.7369 17.4794C96.1989 17.8724 96.5274 18.3147 96.6732 18.8172C96.8204 19.3211 96.8449 19.8483 96.7345 20.4261C96.6378 21.0026 96.4306 21.5188 96.1376 21.9474C95.8337 22.3774 95.493 22.7457 95.0664 23.0524C94.652 23.3468 94.1778 23.5933 93.7021 23.7891C93.2033 23.9616 92.6922 24.0958 92.192 24.1821L92.1798 24.2314Z" fill="#69F67F"/>
<path d="M9.35774 2.26667C9.15897 2.45339 8.89196 2.56768 8.59837 2.56768C7.98417 2.56768 7.48625 2.06743 7.48625 1.45034C7.48625 0.833257 7.98417 0.333008 8.59837 0.333008C9.21258 0.333008 9.71049 0.833257 9.71049 1.45034C9.71049 1.50875 9.70603 1.56611 9.69744 1.62209C13.6451 2.50525 16.5819 5.51132 17.4202 9.41874C19.6204 7.68364 22.3513 6.63581 25.2162 6.63581C25.5188 6.63581 25.8176 6.64777 26.1121 6.67106C26.2156 6.16159 26.6641 5.77826 27.2018 5.77826C27.816 5.77826 28.3139 6.2785 28.3139 6.89559C28.3139 7.51268 27.816 8.01293 27.2018 8.01293C26.8063 8.01293 26.459 7.80548 26.2618 7.49298C23.7413 9.09569 21.7512 11.5483 20.7746 14.412H6.23922C5.85443 11.5047 4.33626 9.02115 2.09457 7.41966C1.90766 7.77262 1.53782 8.01293 1.11212 8.01293C0.497913 8.01293 0 7.51268 0 6.89559C0 6.2785 0.497913 5.77826 1.11212 5.77826C1.65146 5.77826 2.10112 6.16398 2.20273 6.67583C2.5217 6.64944 2.84289 6.63581 3.1659 6.63581C6.02926 6.63581 8.53994 7.68245 10.3773 9.4158C10.4328 9.11163 10.477 8.80414 10.5092 8.49378C10.7484 6.20198 10.3109 4.06617 9.35774 2.26667Z" fill="#69F67F"/>
</svg>
