<svg xmlns:mydata="http://www.w3.org/2000/svg" mydata:contrastcolor="BB29BB"
    mydata:template="Contrast" mydata:presentation="2.5" mydata:layouttype="undefined"
    mydata:specialfontid="undefined" mydata:id1="691" mydata:id2="469"
    mydata:companyname="XSlotsPortal" mydata:companytagline="" version="1.1"
    xmlns="http://www.w3.org/2000/svg" xmlns:xlink="http://www.w3.org/1999/xlink"
    viewBox="64.99999999999997 206.2549799616417 420.0000000000001 57.49004007671658"
    class="watermark-logo">
    <g fill="#101820" fill-rule="none" stroke="none" stroke-width="1" stroke-linecap="butt"
        stroke-linejoin="miter" stroke-miterlimit="10" stroke-dasharray="" stroke-dashoffset="0"
        font-family="none" font-weight="none" font-size="none" text-anchor="none"
        style="mix-blend-mode: normal">
        <g
            data-paper-data="{&quot;isGlobalGroup&quot;:true,&quot;bounds&quot;:{&quot;x&quot;:64.99999999999997,&quot;y&quot;:206.2549799616417,&quot;width&quot;:420.0000000000001,&quot;height&quot;:57.49004007671658}}">
            <g data-paper-data="{&quot;isPrimaryText&quot;:true}" fill-rule="nonzero">
                <path
                    d="M166.1785,228.02496c-1.35353,-2.18311 -2.70706,-4.34439 -4.06059,-6.48384c-1.35353,-2.18311 -2.68523,-4.34439 -3.99509,-6.48384c-0.17465,-0.30564 -0.37113,-0.48028 -0.58944,-0.52395c-0.04366,0 -0.08732,0 -0.13099,0c-0.17465,0 -0.39296,0.06549 -0.65493,0.19648c-0.78592,0.52395 -1.59367,1.04789 -2.42325,1.57184c-0.78592,0.48028 -1.57184,0.96057 -2.35776,1.44085c-0.43662,0.26197 -0.65493,0.50212 -0.65493,0.72043c0,0 0,0.02183 0,0.06549c-0.04366,0.21831 0.04366,0.50212 0.26197,0.85141c1.65916,2.61973 3.31833,5.2613 4.97749,7.92469c1.6155,2.6634 3.25284,5.30496 4.912,7.92469c0.21831,0.39296 0.3493,0.74226 0.39296,1.04789c0,0.30564 -0.10916,0.65493 -0.32747,1.04789c-1.6155,2.57607 -3.20917,5.17397 -4.78101,7.79371c-1.57184,2.61973 -3.14368,5.23947 -4.71552,7.8592c-0.21831,0.3493 -0.30564,0.6331 -0.26197,0.85141c0,0.21831 0.19648,0.43662 0.58944,0.65493c0.82958,0.48028 1.63733,0.96057 2.42325,1.44085c0.82958,0.48028 1.63733,0.9824 2.42325,1.50635c0.30564,0.17465 0.54578,0.26197 0.72043,0.26197c0.08732,0 0.15282,-0.02183 0.19648,-0.06549c0.17465,-0.04366 0.3493,-0.24014 0.52395,-0.58944c1.2662,-2.05212 2.53241,-4.12608 3.79861,-6.22187c1.22254,-2.09579 2.48875,-4.19157 3.79861,-6.28736c0.17465,-0.3493 0.32747,-0.52395 0.45845,-0.52395c0.13099,-0.04366 0.30564,0.13099 0.52395,0.52395c1.04789,1.70283 2.09579,3.38382 3.14368,5.04299c1.04789,1.70283 2.09579,3.38382 3.14368,5.04299c0.21831,0.3493 0.41479,0.56761 0.58944,0.65493c0.21831,0.04366 0.50212,-0.04366 0.85141,-0.26197c0.74226,-0.52395 1.52818,-1.02606 2.35776,-1.50635c0.78592,-0.48028 1.55001,-0.96057 2.29227,-1.44085c0.56761,-0.30564 0.87324,-0.54578 0.91691,-0.72043c0.04366,-0.17465 -0.08732,-0.50212 -0.39296,-0.9824c-1.39719,-2.18311 -2.77255,-4.38805 -4.12608,-6.61483c-1.35353,-2.18311 -2.72889,-4.36622 -4.12608,-6.54933c-0.26197,-0.3493 -0.37113,-0.67676 -0.32747,-0.9824c0,-0.30564 0.10916,-0.67676 0.32747,-1.11339c1.6155,-2.57607 3.18734,-5.15214 4.71552,-7.72821c1.57184,-2.61973 3.14368,-5.21763 4.71552,-7.79371c0.21831,-0.30564 0.32747,-0.54578 0.32747,-0.72043c0,-0.04366 0,-0.06549 0,-0.06549c-0.04366,-0.21831 -0.24014,-0.43662 -0.58944,-0.65493c-0.87324,-0.48028 -1.72466,-0.9824 -2.55424,-1.50635c-0.87324,-0.56761 -1.72466,-1.11339 -2.55424,-1.63733c-0.26197,-0.17465 -0.48028,-0.21831 -0.65493,-0.13099c-0.17465,0.04366 -0.3493,0.19648 -0.52395,0.45845c-0.30564,0.56761 -0.6331,1.11339 -0.9824,1.63733c-0.30564,0.52395 -0.61127,1.04789 -0.91691,1.57184c-1.04789,1.70283 -2.07396,3.38382 -3.07819,5.04299c-1.04789,1.70283 -2.09579,3.42748 -3.14368,5.17397c-0.08732,-0.17465 -0.17465,-0.30564 -0.26197,-0.39296c-0.08732,-0.13099 -0.15282,-0.24014 -0.19648,-0.32747z"
                    data-paper-data="{&quot;glyphName&quot;:&quot;X&quot;,&quot;glyphIndex&quot;:0,&quot;firstGlyphOfWord&quot;:true,&quot;word&quot;:1}"
                    style="fill: rgb(255, 255, 255);"></path>
                <path
                    d="M201.67588,256.25258c2.22677,-1.04789 3.84228,-2.55424 4.84651,-4.51904c1.04789,-1.9648 1.39719,-4.12608 1.04789,-6.48384c-0.17465,-0.96057 -0.45845,-1.85564 -0.85141,-2.68523c-0.43662,-0.87324 -0.91691,-1.72466 -1.44085,-2.55424c-1.04789,-1.48452 -2.2486,-2.79438 -3.60213,-3.9296c-1.35353,-1.13522 -2.75072,-2.22677 -4.19157,-3.27467c-0.87324,-0.74226 -1.72466,-1.46268 -2.55424,-2.16128c-0.87324,-0.74226 -1.65916,-1.52818 -2.35776,-2.35776c-0.43662,-0.52395 -0.80775,-1.06972 -1.11339,-1.63733c-0.26197,-0.56761 -0.3493,-1.20071 -0.26197,-1.89931c0.17465,-1.04789 0.54578,-1.94297 1.11339,-2.68523c0.56761,-0.6986 1.3317,-1.24437 2.29227,-1.63733c1.04789,-0.39296 2.00846,-0.45845 2.88171,-0.19648c0.91691,0.26197 1.74649,0.76409 2.48875,1.50635c0.56761,0.52395 1.06972,1.09156 1.50635,1.70283c0.39296,0.65493 0.74226,1.35353 1.04789,2.09579c0.08732,0.21831 0.21831,0.37113 0.39296,0.45845c0.13099,0.04366 0.3493,0.02183 0.65493,-0.06549c0.96057,-0.39296 1.92114,-0.78592 2.88171,-1.17888c0.91691,-0.3493 1.87748,-0.72043 2.88171,-1.11339c0.30564,-0.08732 0.48028,-0.21831 0.52395,-0.39296c0,-0.08732 0,-0.17465 0,-0.26197c0,-0.08732 -0.02183,-0.21831 -0.06549,-0.39296c-0.39296,-0.87324 -0.82958,-1.74649 -1.30987,-2.61973c-0.48028,-0.82958 -1.02606,-1.6155 -1.63733,-2.35776c-1.70283,-1.9648 -3.62396,-3.42748 -5.76341,-4.38805c-1.39719,-0.61127 -2.90354,-0.91691 -4.51904,-0.91691c-0.87324,0 -1.76832,0.08732 -2.68523,0.26197c-1.52818,0.26197 -2.9472,0.80775 -4.25707,1.63733c-1.30987,0.82958 -2.44508,1.83381 -3.40565,3.01269c-1.74649,2.18311 -2.70706,4.75918 -2.88171,7.72821c0,0.21831 0,0.41479 0,0.58944c0,2.79438 1.09156,5.43595 3.27467,7.92469c0.74226,0.78592 1.52818,1.55001 2.35776,2.29227c0.78592,0.6986 1.59367,1.39719 2.42325,2.09579c1.04789,0.82958 2.09579,1.65916 3.14368,2.48875c1.04789,0.82958 2.05212,1.70283 3.01269,2.61973c0.48028,0.48028 0.89508,0.96057 1.24437,1.44085c0.39296,0.52395 0.67676,1.09156 0.85141,1.70283c0.13099,0.39296 0.19648,0.76409 0.19648,1.11339c0,0.3493 -0.13099,0.6986 -0.39296,1.04789c-0.52395,0.65493 -1.13522,1.06972 -1.83381,1.24437c-0.6986,0.21831 -1.41902,0.26197 -2.16128,0.13099c-0.6986,-0.17465 -1.20071,-0.50212 -1.50635,-0.9824c-0.3493,-0.52395 -0.56761,-1.06972 -0.65493,-1.63733c-0.08732,-0.3493 -0.19648,-0.58944 -0.32747,-0.72043c-0.17465,-0.08732 -0.43662,-0.13099 -0.78592,-0.13099c-0.91691,0.13099 -1.85564,0.24014 -2.81621,0.32747c-0.96057,0.13099 -1.94297,0.24014 -2.9472,0.32747c-0.39296,0 -0.65493,0.10916 -0.78592,0.32747c-0.13099,0.17465 -0.17465,0.45845 -0.13099,0.85141c0.39296,2.70706 1.55001,4.95566 3.47115,6.74581c1.9648,1.79015 4.30073,2.70706 7.00779,2.75072c1.00423,0 1.9648,-0.10916 2.88171,-0.32747c0.96057,-0.17465 1.89931,-0.48028 2.81621,-0.91691z"
                    data-paper-data="{&quot;glyphName&quot;:&quot;S&quot;,&quot;glyphIndex&quot;:1,&quot;word&quot;:1}"
                    style="fill: rgb(255, 255, 255);"></path>
                <path
                    d="M211.69636,255.00821c0,0.3493 0.04366,0.65493 0.13099,0.91691c0.13099,0.21831 0.41479,0.32747 0.85141,0.32747c2.61973,0 5.28313,0 7.99019,0c2.6634,0 5.30496,0 7.92469,0c0.39296,0 0.65493,-0.06549 0.78592,-0.19648c0.13099,-0.17465 0.19648,-0.41479 0.19648,-0.72043c0,-1.00423 0,-1.98663 0,-2.9472c0,-0.96057 0,-1.92114 0,-2.88171c0,-0.08732 0,-0.15282 0,-0.19648c0,-0.30564 -0.06549,-0.50212 -0.19648,-0.58944c-0.17465,-0.17465 -0.45845,-0.26197 -0.85141,-0.26197c-1.22254,0 -2.46692,0 -3.73312,0c-1.2662,-0.04366 -2.51058,-0.06549 -3.73312,-0.06549c-0.74226,-0.04366 -1.17888,-0.10916 -1.30987,-0.19648c-0.13099,-0.13099 -0.19648,-0.54578 -0.19648,-1.24437c0,-4.75918 0,-9.54019 0,-14.34304c0,-4.75918 0,-9.51836 0,-14.27754c0,-0.30564 0,-0.61127 0,-0.91691c-0.04366,-0.30564 -0.06549,-0.61127 -0.06549,-0.91691c0.04366,-0.43662 -0.02183,-0.72043 -0.19648,-0.85141c-0.21831,-0.13099 -0.50212,-0.19648 -0.85141,-0.19648c-0.87324,0.04366 -1.74649,0.06549 -2.61973,0.06549c-0.87324,-0.04366 -1.74649,-0.06549 -2.61973,-0.06549c-0.6986,0 -1.11339,0.08732 -1.24437,0.26197c-0.17465,0.13099 -0.26197,0.54578 -0.26197,1.24437c0,3.14368 0,6.28736 0,9.43104c0,3.14368 0,6.30919 0,9.49653c0,3.18734 0,6.37468 0,9.56203c0,3.231 0,6.41835 0,9.56203z"
                    data-paper-data="{&quot;glyphName&quot;:&quot;L&quot;,&quot;glyphIndex&quot;:2,&quot;word&quot;:1}"
                    style="fill: rgb(255, 255, 255);"></path>
                <path
                    d="M232.65422,250.1617c1.57184,1.9648 3.38382,3.51481 5.43595,4.65003c2.05212,1.13522 4.36622,1.76832 6.94229,1.89931c0.30564,0.04366 0.6331,0.06549 0.9824,0.06549c2.75072,0 5.1958,-0.61127 7.33525,-1.83381c2.44508,-1.30987 4.5627,-3.231 6.35285,-5.76341c1.74649,-2.44508 2.96903,-5.04299 3.66763,-7.79371c0.61127,-2.40142 0.91691,-4.89017 0.91691,-7.46624c0,-0.3493 -0.02183,-0.6986 -0.06549,-1.04789c-0.13099,-4.01692 -1.09156,-7.57539 -2.88171,-10.67541c-1.79015,-3.10002 -4.45355,-5.65426 -7.99019,-7.66272c-2.61973,-1.48452 -5.32679,-2.22677 -8.12117,-2.22677c-1.17888,0 -2.35776,0.13099 -3.53664,0.39296c-4.06059,0.82958 -7.33525,2.96903 -9.824,6.41835c-1.57184,2.13945 -2.70706,4.40988 -3.40565,6.81131c-0.6986,2.44508 -1.04789,4.97749 -1.04789,7.59723c0,3.05636 0.39296,5.98172 1.17888,8.77611c0.78592,2.79438 2.13945,5.41411 4.06059,7.8592zM236.38734,227.04256c0.61127,-1.70283 1.48452,-3.16551 2.61973,-4.38805c1.09156,-1.2662 2.5979,-2.05212 4.51904,-2.35776c1.9648,-0.30564 3.77678,-0.08732 5.43595,0.65493c1.6155,0.74226 3.05636,1.87748 4.32256,3.40565c1.48452,1.83381 2.44508,3.79861 2.88171,5.8944c0.39296,2.09579 0.43662,4.30073 0.13099,6.61483c-0.30564,1.52818 -0.6986,3.03452 -1.17888,4.51904c-0.52395,1.44085 -1.28804,2.79438 -2.29227,4.06059c-1.9648,2.40142 -4.32256,3.5803 -7.07328,3.53664c-2.75072,-0.04366 -5.10848,-1.2662 -7.07328,-3.66763c-1.00423,-1.2662 -1.74649,-2.64156 -2.22677,-4.12608c-0.52395,-1.44085 -0.87324,-2.9472 -1.04789,-4.51904c-0.04366,-0.43662 -0.08732,-0.87324 -0.13099,-1.30987c0,-0.43662 -0.02183,-0.82958 -0.06549,-1.17888c0.04366,-1.30987 0.13099,-2.55424 0.26197,-3.73312c0.17465,-1.13522 0.48028,-2.27044 0.91691,-3.40565z"
                    data-paper-data="{&quot;glyphName&quot;:&quot;O&quot;,&quot;glyphIndex&quot;:3,&quot;word&quot;:1}"
                    style="fill: rgb(255, 255, 255);"></path>
                <path
                    d="M270.57486,254.81173c0,0.43662 0.06549,0.74226 0.19648,0.91691c0.17465,0.17465 0.45845,0.26197 0.85141,0.26197c0.82958,-0.04366 1.65916,-0.06549 2.48875,-0.06549c0.87324,0 1.72466,0 2.55424,0c0.82958,0 1.30987,-0.06549 1.44085,-0.19648c0.13099,-0.13099 0.19648,-0.61127 0.19648,-1.44085c0,-5.1958 0,-10.39161 0,-15.58741c0,-5.1958 0,-10.41344 0,-15.6529c0,-0.65493 0.06549,-1.02606 0.19648,-1.11339c0.08732,-0.08732 0.45845,-0.13099 1.11339,-0.13099c0.87324,0 1.74649,-0.02183 2.61973,-0.06549c0.87324,0 1.74649,0.02183 2.61973,0.06549c0.30564,0 0.54578,-0.08732 0.72043,-0.26197c0.13099,-0.13099 0.19648,-0.37113 0.19648,-0.72043c-0.04366,-1.00423 -0.06549,-2.00846 -0.06549,-3.01269c0,-1.00423 0.02183,-1.98663 0.06549,-2.9472c0,-0.3493 -0.08732,-0.58944 -0.26197,-0.72043c-0.13099,-0.08732 -0.3493,-0.13099 -0.65493,-0.13099c-3.31833,0 -6.63666,0 -9.95499,0c-3.31833,0 -6.61483,0 -9.88949,0c-0.3493,0 -0.58944,0.06549 -0.72043,0.19648c-0.17465,0.08732 -0.26197,0.30564 -0.26197,0.65493c0,0.96057 0,1.94297 0,2.9472c0,1.00423 0,1.98663 0,2.9472c0,0.39296 0.08732,0.65493 0.26197,0.78592c0.13099,0.17465 0.37113,0.26197 0.72043,0.26197c0.6986,-0.04366 1.39719,-0.06549 2.09579,-0.06549c0.6986,0 1.39719,0.02183 2.09579,0.06549c0.6986,0 1.09156,0.04366 1.17888,0.13099c0.13099,0.08732 0.19648,0.45845 0.19648,1.11339c0,2.61973 0,5.23947 0,7.8592c0,2.61973 0,5.2613 0,7.92469c0,2.6634 0,5.32679 0,7.99019c0,2.6634 0,5.32679 0,7.99019z"
                    data-paper-data="{&quot;glyphName&quot;:&quot;T&quot;,&quot;glyphIndex&quot;:4,&quot;word&quot;:1}"
                    style="fill: rgb(255, 255, 255);"></path>
                <path
                    d="M305.87576,256.25258c2.22677,-1.04789 3.84228,-2.55424 4.84651,-4.51904c1.04789,-1.9648 1.39719,-4.12608 1.04789,-6.48384c-0.17465,-0.96057 -0.45845,-1.85564 -0.85141,-2.68523c-0.43662,-0.87324 -0.91691,-1.72466 -1.44085,-2.55424c-1.04789,-1.48452 -2.2486,-2.79438 -3.60213,-3.9296c-1.35353,-1.13522 -2.75072,-2.22677 -4.19157,-3.27467c-0.87324,-0.74226 -1.72466,-1.46268 -2.55424,-2.16128c-0.87324,-0.74226 -1.65916,-1.52818 -2.35776,-2.35776c-0.43662,-0.52395 -0.80775,-1.06972 -1.11339,-1.63733c-0.26197,-0.56761 -0.3493,-1.20071 -0.26197,-1.89931c0.17465,-1.04789 0.54578,-1.94297 1.11339,-2.68523c0.56761,-0.6986 1.3317,-1.24437 2.29227,-1.63733c1.04789,-0.39296 2.00846,-0.45845 2.88171,-0.19648c0.91691,0.26197 1.74649,0.76409 2.48875,1.50635c0.56761,0.52395 1.06972,1.09156 1.50635,1.70283c0.39296,0.65493 0.74226,1.35353 1.04789,2.09579c0.08732,0.21831 0.21831,0.37113 0.39296,0.45845c0.13099,0.04366 0.3493,0.02183 0.65493,-0.06549c0.96057,-0.39296 1.92114,-0.78592 2.88171,-1.17888c0.91691,-0.3493 1.87748,-0.72043 2.88171,-1.11339c0.30564,-0.08732 0.48028,-0.21831 0.52395,-0.39296c0,-0.08732 0,-0.17465 0,-0.26197c0,-0.08732 -0.02183,-0.21831 -0.06549,-0.39296c-0.39296,-0.87324 -0.82958,-1.74649 -1.30987,-2.61973c-0.48028,-0.82958 -1.02606,-1.6155 -1.63733,-2.35776c-1.70283,-1.9648 -3.62396,-3.42748 -5.76341,-4.38805c-1.39719,-0.61127 -2.90354,-0.91691 -4.51904,-0.91691c-0.87324,0 -1.76832,0.08732 -2.68523,0.26197c-1.52818,0.26197 -2.9472,0.80775 -4.25707,1.63733c-1.30987,0.82958 -2.44508,1.83381 -3.40565,3.01269c-1.74649,2.18311 -2.70706,4.75918 -2.88171,7.72821c0,0.21831 0,0.41479 0,0.58944c0,2.79438 1.09156,5.43595 3.27467,7.92469c0.74226,0.78592 1.52818,1.55001 2.35776,2.29227c0.78592,0.6986 1.59367,1.39719 2.42325,2.09579c1.04789,0.82958 2.09579,1.65916 3.14368,2.48875c1.04789,0.82958 2.05212,1.70283 3.01269,2.61973c0.48028,0.48028 0.89508,0.96057 1.24437,1.44085c0.39296,0.52395 0.67676,1.09156 0.85141,1.70283c0.13099,0.39296 0.19648,0.76409 0.19648,1.11339c0,0.3493 -0.13099,0.6986 -0.39296,1.04789c-0.52395,0.65493 -1.13522,1.06972 -1.83381,1.24437c-0.6986,0.21831 -1.41902,0.26197 -2.16128,0.13099c-0.6986,-0.17465 -1.20071,-0.50212 -1.50635,-0.9824c-0.3493,-0.52395 -0.56761,-1.06972 -0.65493,-1.63733c-0.08732,-0.3493 -0.19648,-0.58944 -0.32747,-0.72043c-0.17465,-0.08732 -0.43662,-0.13099 -0.78592,-0.13099c-0.91691,0.13099 -1.85564,0.24014 -2.81621,0.32747c-0.96057,0.13099 -1.94297,0.24014 -2.9472,0.32747c-0.39296,0 -0.65493,0.10916 -0.78592,0.32747c-0.13099,0.17465 -0.17465,0.45845 -0.13099,0.85141c0.39296,2.70706 1.55001,4.95566 3.47115,6.74581c1.9648,1.79015 4.30073,2.70706 7.00779,2.75072c1.00423,0 1.9648,-0.10916 2.88171,-0.32747c0.96057,-0.17465 1.89931,-0.48028 2.81621,-0.91691z"
                    data-paper-data="{&quot;glyphName&quot;:&quot;S&quot;,&quot;glyphIndex&quot;:5,&quot;word&quot;:1}"
                    style="fill: rgb(255, 255, 255);"></path>
                <path
                    d="M317.53357,213.61643c-0.74226,0 -1.17888,0.04366 -1.30987,0.13099c-0.13099,0.13099 -0.19648,0.56761 -0.19648,1.30987c0,5.5451 0,11.0902 0,16.6353c0,5.50144 0,11.02471 0,16.56981c0,1.09156 0,2.16128 0,3.20917c-0.04366,1.09156 -0.08732,2.16128 -0.13099,3.20917c0,0.43662 0.08732,0.72043 0.26197,0.85141c0.13099,0.17465 0.41479,0.26197 0.85141,0.26197c0.91691,0 1.85564,-0.02183 2.81621,-0.06549c0.91691,0 1.85564,0.02183 2.81621,0.06549c0.04366,0 0.08732,0 0.13099,0c0.39296,0 0.65493,-0.08732 0.78592,-0.26197c0.17465,-0.21831 0.26197,-0.54578 0.26197,-0.9824c-0.04366,-1.44085 -0.04366,-2.85988 0,-4.25707c0,-1.44085 -0.02183,-2.88171 -0.06549,-4.32256c0,-0.48028 0.08732,-0.82958 0.26197,-1.04789c0.17465,-0.21831 0.54578,-0.37113 1.11339,-0.45845c2.18311,-0.3493 4.2789,-0.89508 6.28736,-1.63733c2.05212,-0.74226 3.97326,-1.79015 5.76341,-3.14368c2.79438,-2.18311 4.54087,-4.89017 5.23947,-8.12117c0.17465,-0.91691 0.26197,-1.83381 0.26197,-2.75072c0,-2.22677 -0.61127,-4.38805 -1.83381,-6.48384c-1.22254,-2.13945 -2.75072,-3.84228 -4.58453,-5.10848c-1.87748,-1.22254 -3.97326,-2.16128 -6.28736,-2.81621c-1.44085,-0.39296 -2.88171,-0.6331 -4.32256,-0.72043c-1.48452,-0.04366 -2.9472,-0.06549 -4.38805,-0.06549c-0.61127,0 -1.22254,0 -1.83381,0c-0.65493,0 -1.28804,0 -1.89931,0zM323.82093,222.45803c0,-0.30564 0.04366,-0.54578 0.13099,-0.72043c0.13099,-0.17465 0.3493,-0.26197 0.65493,-0.26197c1.6155,0 3.12185,0.26197 4.51904,0.78592c1.39719,0.48028 2.6634,1.28804 3.79861,2.42325c1.35353,1.30987 1.98663,2.79438 1.89931,4.45355c-0.08732,1.6155 -0.85141,3.03452 -2.29227,4.25707c-0.91691,0.74226 -1.92114,1.35353 -3.01269,1.83381c-1.04789,0.43662 -2.16128,0.80775 -3.34016,1.11339c-0.21831,0.04366 -0.45845,0.08732 -0.72043,0.13099c-0.21831,0.04366 -0.48028,0.10916 -0.78592,0.19648c-0.30564,0.08732 -0.52395,0.06549 -0.65493,-0.06549c-0.13099,-0.13099 -0.19648,-0.3493 -0.19648,-0.65493c0,-1.13522 0,-2.27044 0,-3.40565c0,-1.13522 0,-2.27044 0,-3.40565v0v0c0,-1.13522 0,-2.2486 0,-3.34016c0,-1.13522 0,-2.2486 0,-3.34016z"
                    data-paper-data="{&quot;glyphName&quot;:&quot;P&quot;,&quot;glyphIndex&quot;:6,&quot;word&quot;:1}"
                    style="fill: rgb(255, 255, 255);"></path>
                <path
                    d="M349.69079,250.1617c1.57184,1.9648 3.38382,3.51481 5.43595,4.65003c2.05212,1.13522 4.36622,1.76832 6.94229,1.89931c0.30564,0.04366 0.6331,0.06549 0.9824,0.06549c2.75072,0 5.1958,-0.61127 7.33525,-1.83381c2.44508,-1.30987 4.5627,-3.231 6.35285,-5.76341c1.74649,-2.44508 2.96903,-5.04299 3.66763,-7.79371c0.61127,-2.40142 0.91691,-4.89017 0.91691,-7.46624c0,-0.3493 -0.02183,-0.6986 -0.06549,-1.04789c-0.13099,-4.01692 -1.09156,-7.57539 -2.88171,-10.67541c-1.79015,-3.10002 -4.45355,-5.65426 -7.99019,-7.66272c-2.61973,-1.48452 -5.32679,-2.22677 -8.12117,-2.22677c-1.17888,0 -2.35776,0.13099 -3.53664,0.39296c-4.06059,0.82958 -7.33525,2.96903 -9.824,6.41835c-1.57184,2.13945 -2.70706,4.40988 -3.40565,6.81131c-0.6986,2.44508 -1.04789,4.97749 -1.04789,7.59723c0,3.05636 0.39296,5.98172 1.17888,8.77611c0.78592,2.79438 2.13945,5.41411 4.06059,7.8592zM353.42391,227.04256c0.61127,-1.70283 1.48452,-3.16551 2.61973,-4.38805c1.09156,-1.2662 2.5979,-2.05212 4.51904,-2.35776c1.9648,-0.30564 3.77678,-0.08732 5.43595,0.65493c1.6155,0.74226 3.05636,1.87748 4.32256,3.40565c1.48452,1.83381 2.44508,3.79861 2.88171,5.8944c0.39296,2.09579 0.43662,4.30073 0.13099,6.61483c-0.30564,1.52818 -0.6986,3.03452 -1.17888,4.51904c-0.52395,1.44085 -1.28804,2.79438 -2.29227,4.06059c-1.9648,2.40142 -4.32256,3.5803 -7.07328,3.53664c-2.75072,-0.04366 -5.10848,-1.2662 -7.07328,-3.66763c-1.00423,-1.2662 -1.74649,-2.64156 -2.22677,-4.12608c-0.52395,-1.44085 -0.87324,-2.9472 -1.04789,-4.51904c-0.04366,-0.43662 -0.08732,-0.87324 -0.13099,-1.30987c0,-0.43662 -0.02183,-0.82958 -0.06549,-1.17888c0.04366,-1.30987 0.13099,-2.55424 0.26197,-3.73312c0.17465,-1.13522 0.48028,-2.27044 0.91691,-3.40565z"
                    data-paper-data="{&quot;glyphName&quot;:&quot;O&quot;,&quot;glyphIndex&quot;:7,&quot;word&quot;:1}"
                    style="fill: rgb(255, 255, 255);"></path>
                <path
                    d="M404.37772,237.32501c2.79438,-2.05212 4.51904,-4.62819 5.17397,-7.72821c0.61127,-3.14368 -0.04366,-6.06905 -1.9648,-8.77611c-1.6155,-2.27044 -3.55847,-3.95143 -5.82891,-5.04299c-2.22677,-1.04789 -4.69369,-1.70283 -7.40075,-1.9648c-0.82958,-0.08732 -1.681,-0.13099 -2.55424,-0.13099c-0.78592,0 -1.55001,0.02183 -2.29227,0.06549c-1.6155,0.13099 -3.231,0.17465 -4.84651,0.13099c-0.6986,-0.04366 -1.11339,0 -1.24437,0.13099c-0.13099,0.13099 -0.19648,0.54578 -0.19648,1.24437c0,5.45778 0,10.93739 0,16.43882c0,5.45778 0,10.91555 0,16.37333c0,1.09156 0,2.18311 0,3.27467c-0.04366,1.09156 -0.08732,2.18311 -0.13099,3.27467c0,0.43662 0.08732,0.74226 0.26197,0.91691c0.17465,0.17465 0.48028,0.26197 0.91691,0.26197c0.87324,-0.04366 1.79015,-0.06549 2.75072,-0.06549c0.91691,0 1.83381,0.02183 2.75072,0.06549c0.48028,0 0.80775,-0.10916 0.9824,-0.32747c0.17465,-0.21831 0.26197,-0.54578 0.26197,-0.9824c-0.04366,-1.6155 -0.04366,-3.231 0,-4.84651c0,-1.65916 0,-3.2965 0,-4.912c0,-0.56761 0.04366,-0.89508 0.13099,-0.9824c0.08732,-0.08732 0.39296,0.02183 0.91691,0.32747c2.48875,1.22254 4.99932,2.46692 7.53173,3.73312c2.53241,1.22254 5.06482,2.46692 7.59723,3.73312c0.3493,0.21831 0.65493,0.30564 0.91691,0.26197c0.21831,-0.04366 0.41479,-0.2838 0.58944,-0.72043c0.39296,-0.82958 0.80775,-1.65916 1.24437,-2.48875c0.39296,-0.87324 0.80775,-1.72466 1.24437,-2.55424c0.17465,-0.26197 0.26197,-0.48028 0.26197,-0.65493c0,-0.08732 -0.02183,-0.15282 -0.06549,-0.19648c-0.04366,-0.21831 -0.26197,-0.41479 -0.65493,-0.58944c-1.52818,-0.74226 -3.05636,-1.50635 -4.58453,-2.29227c-1.52818,-0.74226 -3.05636,-1.48452 -4.58453,-2.22677c-0.13099,-0.08732 -0.2838,-0.17465 -0.45845,-0.26197c-0.17465,-0.04366 -0.30564,-0.17465 -0.39296,-0.39296c0.61127,-0.30564 1.24437,-0.6331 1.89931,-0.9824c0.61127,-0.3493 1.20071,-0.72043 1.76832,-1.11339zM391.01708,222.39254c0,-0.26197 0.04366,-0.48028 0.13099,-0.65493c0.08732,-0.13099 0.2838,-0.21831 0.58944,-0.26197c1.48452,0 2.90354,0.15282 4.25707,0.45845c1.39719,0.3493 2.68523,0.96057 3.86411,1.83381c0.82958,0.61127 1.41902,1.35353 1.76832,2.22677c0.3493,0.91691 0.39296,1.76832 0.13099,2.55424c-0.17465,0.52395 -0.45845,1.00423 -0.85141,1.44085c-0.39296,0.39296 -0.80775,0.76409 -1.24437,1.11339c-1.17888,0.82958 -2.44508,1.41902 -3.79861,1.76832c-1.35353,0.3493 -2.75072,0.61127 -4.19157,0.78592c-0.30564,0.04366 -0.50212,-0.02183 -0.58944,-0.19648c-0.04366,-0.17465 -0.06549,-0.37113 -0.06549,-0.58944c0,-0.87324 0,-1.74649 0,-2.61973c0,-0.87324 0,-1.74649 0,-2.61973v0v0c0,-0.87324 0,-1.74649 0,-2.61973c0,-0.87324 0,-1.74649 0,-2.61973z"
                    data-paper-data="{&quot;glyphName&quot;:&quot;R&quot;,&quot;glyphIndex&quot;:8,&quot;word&quot;:1}"
                    style="fill: rgb(255, 255, 255);"></path>
                <path
                    d="M415.83905,254.81173c0,0.43662 0.06549,0.74226 0.19648,0.91691c0.17465,0.17465 0.45845,0.26197 0.85141,0.26197c0.82958,-0.04366 1.65916,-0.06549 2.48875,-0.06549c0.87324,0 1.72466,0 2.55424,0c0.82958,0 1.30987,-0.06549 1.44085,-0.19648c0.13099,-0.13099 0.19648,-0.61127 0.19648,-1.44085c0,-5.1958 0,-10.39161 0,-15.58741c0,-5.1958 0,-10.41344 0,-15.6529c0,-0.65493 0.06549,-1.02606 0.19648,-1.11339c0.08732,-0.08732 0.45845,-0.13099 1.11339,-0.13099c0.87324,0 1.74649,-0.02183 2.61973,-0.06549c0.87324,0 1.74649,0.02183 2.61973,0.06549c0.30564,0 0.54578,-0.08732 0.72043,-0.26197c0.13099,-0.13099 0.19648,-0.37113 0.19648,-0.72043c-0.04366,-1.00423 -0.06549,-2.00846 -0.06549,-3.01269c0,-1.00423 0.02183,-1.98663 0.06549,-2.9472c0,-0.3493 -0.08732,-0.58944 -0.26197,-0.72043c-0.13099,-0.08732 -0.3493,-0.13099 -0.65493,-0.13099c-3.31833,0 -6.63666,0 -9.95499,0c-3.31833,0 -6.61483,0 -9.88949,0c-0.3493,0 -0.58944,0.06549 -0.72043,0.19648c-0.17465,0.08732 -0.26197,0.30564 -0.26197,0.65493c0,0.96057 0,1.94297 0,2.9472c0,1.00423 0,1.98663 0,2.9472c0,0.39296 0.08732,0.65493 0.26197,0.78592c0.13099,0.17465 0.37113,0.26197 0.72043,0.26197c0.6986,-0.04366 1.39719,-0.06549 2.09579,-0.06549c0.6986,0 1.39719,0.02183 2.09579,0.06549c0.6986,0 1.09156,0.04366 1.17888,0.13099c0.13099,0.08732 0.19648,0.45845 0.19648,1.11339c0,2.61973 0,5.23947 0,7.8592c0,2.61973 0,5.2613 0,7.92469c0,2.6634 0,5.32679 0,7.99019c0,2.6634 0,5.32679 0,7.99019z"
                    data-paper-data="{&quot;glyphName&quot;:&quot;T&quot;,&quot;glyphIndex&quot;:9,&quot;word&quot;:1}"
                    style="fill: rgb(255, 255, 255);"></path>
                <path
                    d="M446.55542,214.40235c-0.82958,0 -1.63733,0 -2.42325,0c-0.78592,0.04366 -1.57184,0.04366 -2.35776,0c-0.04366,0 -0.10916,0 -0.19648,0c-0.30564,0 -0.54578,0.06549 -0.72043,0.19648c-0.17465,0.17465 -0.32747,0.43662 -0.45845,0.78592c-0.43662,1.52818 -0.87324,3.03452 -1.30987,4.51904c-0.39296,1.52818 -0.80775,3.05636 -1.24437,4.58453c-1.48452,5.10848 -2.96903,10.23879 -4.45355,15.39093c-1.44085,5.10848 -2.90354,10.23879 -4.38805,15.39093c-0.08732,0.39296 -0.13099,0.67676 -0.13099,0.85141c0,0.04366 0,0.08732 0,0.13099c0.08732,0.08732 0.41479,0.13099 0.9824,0.13099c1.04789,0 2.11762,0 3.20917,0c1.04789,-0.04366 2.11762,-0.02183 3.20917,0.06549c0.48028,0 0.82958,-0.08732 1.04789,-0.26197c0.17465,-0.21831 0.3493,-0.54578 0.52395,-0.9824c0.52395,-2.05212 1.04789,-4.08242 1.57184,-6.09088c0.56761,-2.05212 1.13522,-4.08242 1.70283,-6.09088c0.04366,-0.26197 0.13099,-0.50212 0.26197,-0.72043c0.13099,-0.17465 0.37113,-0.26197 0.72043,-0.26197c1.57184,0.04366 3.14368,0.04366 4.71552,0c1.57184,0 3.14368,0.04366 4.71552,0.13099c0.39296,0 0.67676,0.08732 0.85141,0.26197c0.21831,0.17465 0.37113,0.41479 0.45845,0.72043c0.61127,2.09579 1.22254,4.16974 1.83381,6.22187c0.61127,2.09579 1.22254,4.16974 1.83381,6.22187c0.13099,0.3493 0.2838,0.61127 0.45845,0.78592c0.17465,0.13099 0.41479,0.19648 0.72043,0.19648c0.04366,0 0.10916,0 0.19648,0c1.04789,-0.04366 2.11762,-0.04366 3.20917,0c1.04789,0 2.11762,0 3.20917,0c0.52395,-0.04366 0.82958,-0.10916 0.91691,-0.19648c0.04366,-0.04366 0.06549,-0.10916 0.06549,-0.19648c0,-0.17465 -0.06549,-0.43662 -0.19648,-0.78592c-0.48028,-1.65916 -0.9824,-3.31833 -1.50635,-4.97749c-0.56761,-1.70283 -1.11339,-3.38382 -1.63733,-5.04299c-1.52818,-4.97749 -3.05636,-9.93315 -4.58453,-14.86698c-1.57184,-4.97749 -3.12185,-9.93315 -4.65003,-14.86698c-0.13099,-0.43662 -0.32747,-0.76409 -0.58944,-0.9824c-0.21831,-0.17465 -0.56761,-0.24014 -1.04789,-0.19648c-0.74226,0.04366 -1.48452,0.04366 -2.22677,0c-0.78592,0 -1.55001,0 -2.29227,0c0,0 0,-0.02183 0,-0.06549zM449.10966,230.77568c0.13099,0.48028 0.26197,0.93874 0.39296,1.37536c0.13099,0.43662 0.26197,0.89508 0.39296,1.37536c0.04366,0.21831 0.04366,0.41479 0,0.58944c-0.04366,0.13099 -0.21831,0.19648 -0.52395,0.19648c-0.87324,-0.04366 -1.72466,-0.06549 -2.55424,-0.06549c-0.87324,0 -1.72466,-0.02183 -2.55424,-0.06549c-0.26197,0 -0.45845,-0.04366 -0.58944,-0.13099c-0.13099,-0.04366 -0.15282,-0.21831 -0.06549,-0.52395c0.08732,-0.26197 0.17465,-0.54578 0.26197,-0.85141c0.04366,-0.30564 0.10916,-0.61127 0.19648,-0.91691c0.39296,-1.48452 0.78592,-2.96903 1.17888,-4.45355c0.43662,-1.52818 0.87324,-3.10002 1.30987,-4.71552c0.43662,1.44085 0.87324,2.83804 1.30987,4.19157c0.39296,1.35353 0.80775,2.68523 1.24437,3.99509z"
                    data-paper-data="{&quot;glyphName&quot;:&quot;A&quot;,&quot;glyphIndex&quot;:10,&quot;word&quot;:1}"
                    style="fill: rgb(255, 255, 255);"></path>
                <path
                    d="M467.12032,255.00821c0,0.3493 0.04366,0.65493 0.13099,0.91691c0.13099,0.21831 0.41479,0.32747 0.85141,0.32747c2.61973,0 5.28313,0 7.99019,0c2.6634,0 5.30496,0 7.92469,0c0.39296,0 0.65493,-0.06549 0.78592,-0.19648c0.13099,-0.17465 0.19648,-0.41479 0.19648,-0.72043c0,-1.00423 0,-1.98663 0,-2.9472c0,-0.96057 0,-1.92114 0,-2.88171c0,-0.08732 0,-0.15282 0,-0.19648c0,-0.30564 -0.06549,-0.50212 -0.19648,-0.58944c-0.17465,-0.17465 -0.45845,-0.26197 -0.85141,-0.26197c-1.22254,0 -2.46692,0 -3.73312,0c-1.2662,-0.04366 -2.51058,-0.06549 -3.73312,-0.06549c-0.74226,-0.04366 -1.17888,-0.10916 -1.30987,-0.19648c-0.13099,-0.13099 -0.19648,-0.54578 -0.19648,-1.24437c0,-4.75918 0,-9.54019 0,-14.34304c0,-4.75918 0,-9.51836 0,-14.27754c0,-0.30564 0,-0.61127 0,-0.91691c-0.04366,-0.30564 -0.06549,-0.61127 -0.06549,-0.91691c0.04366,-0.43662 -0.02183,-0.72043 -0.19648,-0.85141c-0.21831,-0.13099 -0.50212,-0.19648 -0.85141,-0.19648c-0.87324,0.04366 -1.74649,0.06549 -2.61973,0.06549c-0.87324,-0.04366 -1.74649,-0.06549 -2.61973,-0.06549c-0.6986,0 -1.11339,0.08732 -1.24437,0.26197c-0.17465,0.13099 -0.26197,0.54578 -0.26197,1.24437c0,3.14368 0,6.28736 0,9.43104c0,3.14368 0,6.30919 0,9.49653c0,3.18734 0,6.37468 0,9.56203c0,3.231 0,6.41835 0,9.56203z"
                    data-paper-data="{&quot;glyphName&quot;:&quot;L&quot;,&quot;glyphIndex&quot;:11,&quot;lastGlyphOfWord&quot;:true,&quot;word&quot;:1}"
                    style="fill: rgb(255, 255, 255);"></path>
            </g>
            <g
                data-paper-data="{&quot;fillRule&quot;:&quot;evenodd&quot;,&quot;fillRuleOriginal&quot;:&quot;evenodd&quot;,&quot;isIcon&quot;:true,&quot;iconStyle&quot;:&quot;standalone&quot;,&quot;selectedEffects&quot;:{&quot;container&quot;:&quot;&quot;,&quot;transformation&quot;:&quot;&quot;,&quot;pattern&quot;:&quot;&quot;},&quot;bounds&quot;:{&quot;x&quot;:64.99999999999997,&quot;y&quot;:206.2549799616417,&quot;width&quot;:57.49004007671658,&quot;height&quot;:57.49004007671658},&quot;iconType&quot;:&quot;icon&quot;,&quot;isDetailed&quot;:false,&quot;source&quot;:&quot;noun&quot;,&quot;rawIconId&quot;:&quot;2230391&quot;,&quot;suitableAsStandaloneIcon&quot;:true}"
                fill-rule="evenodd">
                <path
                    d="M79.73631,238.59312l-12.81399,-0.04491c-0.91783,-0.0018 -1.68672,-0.69518 -1.78309,-1.60792c-0.09432,-0.92523 -0.13924,-1.87292 -0.13924,-2.81162c0,-14.8486 12.284,-27.35717 27.39759,-27.87368h0.09118c0.44227,0.01142 0.8655,0.18871 1.18438,0.49855c0.35177,0.34001 0.54966,0.80879 0.54795,1.29802v11.70461l0.81295,-0.02695c6.49709,-0.18019 11.77625,-5.3013 12.15375,-11.78995c0.05924,-0.94573 0.84263,-1.68243 1.78942,-1.68428h0.00714h11.72168c0.48462,0.00169 0.94814,0.19919 1.28544,0.54795c0.30586,0.31381 0.48238,0.72913 0.49855,1.16396v0.12956c-0.3153,9.70117 -5.66546,18.53609 -14.1165,23.31041h12.31994c0.99215,0 1.79656,0.80437 1.79656,1.79656v0.18725c-0.0247,15.7207 -11.98443,28.86229 -27.64462,30.35433h-0.22695c-0.43333,-0.00494 -0.8513,-0.16394 -1.17886,-0.44914c-0.38101,-0.34404 -0.59677,-0.83405 -0.59287,-1.34742v-11.67766c-6.44966,0.47609 -12.09087,5.69062 -12.53552,11.81241c-0.07038,0.93601 -0.84897,1.65913 -1.78628,1.66182h-11.74093c-0.48469,-0.0018 -0.94836,-0.19897 -1.28546,-0.54795c-0.30582,-0.31395 -0.48254,-0.72896 -0.49854,-1.16417v-0.12935c0.33236,-9.95745 6.24755,-18.6618 14.73631,-23.31041zM92.42454,219.76963v-11.71808c-14.12548,0.48507 -25.62798,12.17621 -25.62798,26.07712c0,0.87133 0.04491,1.76962 0.13474,2.6679h11.80342c-0.15922,-0.87573 -0.23742,-1.76431 -0.23355,-2.65442c0,-7.51862 6.28797,-13.92337 13.92337,-14.37251zM108.98886,208.05154c-0.40728,7.08857 -5.95229,12.80568 -13.02509,13.42931v11.72258c13.52889,-0.67915 24.27966,-11.61344 24.7297,-25.15189zM94.15373,234.97305v-13.44728l-0.85786,0.02695c-7.056,0 -13.02509,5.7535 -13.02509,12.57595c0.00166,1.12141 0.15266,2.23762 0.44914,3.31915l0.13924,0.53897c4.00661,-1.98147 8.41605,-3.01275 12.88585,-3.01374zM95.09244,235l-0.44914,0.02246v14.1704c7.72204,-1.36579 13.35085,-8.07569 13.35296,-15.91755c0,-0.3144 -0.06737,-1.62589 -0.06737,-1.62589c-3.94579,2.13616 -8.34998,3.28578 -12.83645,3.35059zM109.77934,233.20343v0.08983c-0.01617,8.82113 -6.42649,16.32901 -15.13605,17.72759v10.9276c14.77409,-1.40402 26.05646,-13.81454 26.05017,-28.65519v-0.08983zM78.50117,261.94845c0.51651,-7.04253 6.98414,-13.02509 14.34556,-13.47423v-11.67766c-13.99074,0.44914 -25.60103,11.56538 -26.05017,25.15189z"
                    data-paper-data="{&quot;isPathIcon&quot;:true}"
                    style="fill: rgb(255, 255, 255);"></path>
            </g>
        </g>
    </g>
</svg>