<svg width="68" height="26" viewBox="0 0 68 26" fill="none" xmlns="http://www.w3.org/2000/svg">
<path d="M61.9589 14.1147C59.0384 14.1147 56.7083 16.4755 56.7083 19.4079C56.7083 22.3192 59.0383 24.7011 61.9378 24.7011C64.8583 24.7011 67.2095 22.3192 67.2095 19.4079C67.2095 16.4755 64.8583 14.1147 61.9589 14.1147ZM61.9852 22.1816C60.5039 22.1816 59.3125 20.9906 59.3125 19.4979C59.3125 18.0105 60.4986 16.8143 61.9852 16.8143C63.4455 16.8143 64.658 18.0052 64.658 19.4979C64.6527 20.9906 63.4455 22.1816 61.9852 22.1816Z" fill="white"/>
<path d="M9.39987 21.0961C9.23645 20.9849 9.02031 21.022 8.88324 21.1702C8.16102 21.9642 7.34917 22.3188 6.44244 22.3188C4.56044 22.3188 2.92621 20.5879 3.50082 18.5659C3.87511 17.2532 5.19304 16.3587 6.55314 16.4593C7.35445 16.5175 8.06613 16.8827 8.704 17.6555C8.8358 17.8196 9.06775 17.8672 9.24172 17.7455L10.6651 16.7345C10.8601 16.5969 10.8918 16.3005 10.7283 16.1258C9.38405 14.7072 7.86053 14.1302 6.31065 14.1302C3.15816 14.1302 0.785889 16.4222 0.785889 19.3811C0.785889 22.3612 3.29522 24.6266 6.44771 24.6266C7.99232 24.6266 9.51585 24.055 10.8601 22.6417C11.0288 22.467 10.9919 22.1653 10.7916 22.033L9.39987 21.0961Z" fill="white"/>
<path d="M38.7163 14.3422H36.8817C36.6656 14.3422 36.4863 14.5221 36.4863 14.7392V24.0287C36.4863 24.2457 36.6656 24.4257 36.8817 24.4257H38.7163C38.9324 24.4257 39.1116 24.2457 39.1116 24.0287V14.7444C39.1116 14.5221 38.9324 14.3422 38.7163 14.3422Z" fill="white"/>
<path d="M47.9519 14.1623C45.121 14.1623 43.181 16.179 43.181 18.5186V24.0341C43.181 24.2511 43.3603 24.4311 43.5764 24.4311H45.411C45.6271 24.4311 45.8063 24.2511 45.8063 24.0341V18.9103C45.8063 17.3064 46.6973 16.3907 47.9519 16.3907C49.2277 16.3907 50.1186 17.3064 50.1186 18.9103V24.0341C50.1186 24.2511 50.2978 24.4311 50.514 24.4311H52.3485C52.5647 24.4311 52.7439 24.2511 52.7439 24.0341V18.5186C52.7439 16.179 50.8039 14.1623 47.9519 14.1623Z" fill="white"/>
<path d="M15.5624 6.15377V11.304C15.5624 11.5211 15.7416 11.701 15.9577 11.701H17.7712C17.9873 11.701 18.1666 11.5211 18.1666 11.304V5.78854C18.1666 3.42778 16.3637 1.41107 13.5117 1.41107C12.0303 1.41107 10.7967 1.96156 9.95325 2.80847C9.13086 1.96156 7.87619 1.41107 6.39484 1.41107C3.56393 1.41107 1.67139 3.42778 1.67139 5.78854V11.304C1.67139 11.5211 1.85062 11.701 2.06677 11.701H3.88024C4.09638 11.701 4.27561 11.5211 4.27561 11.304V6.15377C4.27561 4.54993 5.098 3.63421 6.35267 3.63421C7.62842 3.63421 8.61423 4.54993 8.61423 6.15377V11.304C8.61423 11.5211 8.79347 11.701 9.00961 11.701H10.8442C11.0603 11.701 11.2395 11.5211 11.2395 11.304V6.15377C11.2395 4.54993 12.2201 3.63421 13.4748 3.63421C14.74 3.63421 15.5624 4.54993 15.5624 6.15377Z" fill="white"/>
<path d="M48.4162 1.35779C46.9349 1.35779 45.7013 1.90828 44.8578 2.75519C44.0354 1.90828 42.7807 1.35779 41.2994 1.35779C38.4685 1.35779 36.5759 3.3745 36.5759 5.73526V11.2508C36.5759 11.4678 36.7552 11.6478 36.9713 11.6478H38.7848C39.0009 11.6478 39.1802 11.4678 39.1802 11.2508V6.10049C39.1802 4.49665 40.0025 3.58093 41.2572 3.58093C42.533 3.58093 43.5188 4.49665 43.5188 6.10049V11.2508C43.5188 11.4678 43.698 11.6478 43.9142 11.6478H45.7487C45.9649 11.6478 46.1441 11.4678 46.1441 11.2508V6.10049C46.1441 4.49665 47.1246 3.58093 48.3793 3.58093C49.6551 3.58093 50.4774 4.49665 50.4774 6.10049V11.2508C50.4774 11.4678 50.6567 11.6478 50.8728 11.6478H52.6863C52.9024 11.6478 53.0817 11.4678 53.0817 11.2508V5.73526C53.0711 3.3745 51.2682 1.35779 48.4162 1.35779Z" fill="white"/>
<path d="M61.9378 11.8754C64.8583 11.8754 67.2095 9.49351 67.2095 6.58226C67.2095 3.64983 64.8583 1.28906 61.9589 1.28906C59.0384 1.28906 56.7083 3.64983 56.7083 6.58226C56.7135 9.49351 59.0383 11.8754 61.9378 11.8754ZM61.9852 3.99388C63.4455 3.99388 64.658 5.18485 64.658 6.67753C64.658 8.16492 63.4508 9.36118 61.9852 9.36118C60.5039 9.36118 59.3125 8.17021 59.3125 6.67753C59.3125 5.18485 60.4986 3.99388 61.9852 3.99388Z" fill="white"/>
<path d="M22.7847 14.342H20.9238C20.7077 14.3473 20.5337 14.5219 20.5337 14.739V14.956L20.481 14.9189C19.7746 14.3684 18.8942 14.1355 17.9136 14.1144C15.3885 14.0614 13.2429 15.7553 12.7737 18.2483C12.12 21.7048 14.4554 24.6531 17.7555 24.6531C18.8151 24.6531 19.764 24.399 20.4862 23.7797L20.56 23.7109V23.7268C20.56 23.7268 20.56 23.7268 20.5653 23.7268V24.0444C20.5706 24.2561 20.7393 24.4255 20.9502 24.4255H22.7952C23.0114 24.4255 23.1906 24.2455 23.1906 24.0285V14.7443C23.1801 14.5219 23.0061 14.342 22.7847 14.342ZM17.9295 22.1812C16.4481 22.1812 15.2567 20.9902 15.2567 19.4975C15.2567 18.0102 16.4428 16.8139 17.9295 16.8139C19.3897 16.8139 20.6022 18.0049 20.6022 19.4975C20.6022 20.9902 19.3897 22.1812 17.9295 22.1812Z" fill="white"/>
<path d="M27.6193 11.8542C28.9267 11.8542 30.1761 11.4519 31.1461 10.7585C31.3306 10.6262 31.3517 10.3509 31.2093 10.1762L30.1919 8.95881C30.0496 8.78943 29.8018 8.78414 29.6278 8.92705C29.0268 9.42991 28.3679 9.63105 27.6246 9.63105C26.2118 9.63105 24.9307 8.68886 24.567 7.36027H32.211C32.4271 7.36027 32.6011 7.18559 32.6011 6.96857V6.70391H32.6063V6.60863C32.6063 3.64974 30.5504 1.35779 27.4032 1.35779C24.2507 1.35779 21.9469 3.64974 21.9469 6.60863C21.9364 9.56224 24.4668 11.8542 27.6193 11.8542ZM27.3926 3.58093C28.5788 3.58093 29.4486 4.29022 29.8334 5.20594H24.7884C25.2681 4.22141 26.2276 3.58093 27.3926 3.58093Z" fill="white"/>
<path d="M32.8222 19.2171C32.1158 18.7302 31.2776 18.4761 30.4763 18.1955C29.9386 18.005 29.074 17.8303 28.9212 17.1687C28.9053 17.1104 28.9001 17.0522 28.9001 17.0046C28.879 16.2582 30.0862 16.3376 30.5765 16.4647C31.1985 16.6235 31.7573 16.9516 32.3162 17.2586C32.5007 17.3592 32.7326 17.301 32.8433 17.1157L33.613 15.8454C33.7237 15.6601 33.6763 15.4166 33.497 15.3055C32.469 14.6544 31.1775 14.1674 29.9597 14.1674C28.1779 14.1674 26.2642 15.0831 26.2642 17.1263C26.2642 18.0685 26.7809 18.8095 27.5505 19.3071C28.2991 19.7888 29.1584 20.0482 29.9808 20.3657C30.5396 20.5828 31.8628 21.0909 31.2776 21.9167C31.1564 22.0913 30.9666 22.2078 30.7663 22.2819C30.4816 22.3825 30.1653 22.4195 29.8701 22.4195C28.9581 22.4195 27.9986 21.9696 27.2079 21.4773C27.0128 21.3556 26.765 21.4191 26.6543 21.6149L25.9268 22.9224C25.8583 23.0812 25.9005 23.2611 26.0375 23.3723C27.2237 24.0869 28.5205 24.6109 29.9175 24.6109C31.8101 24.6109 34.0505 23.6687 34.0505 21.4932C34.0347 20.5457 33.5919 19.7517 32.8222 19.2171Z" fill="white"/>
<path d="M61.9846 16.8241C60.5033 16.8241 59.3119 18.0151 59.3119 19.5077C59.3119 20.9951 60.498 22.1914 61.9846 22.1914C63.4449 22.1914 64.6574 21.0004 64.6574 19.5077C64.6521 18.0151 63.4449 16.8241 61.9846 16.8241ZM61.9846 21.3921C60.9303 21.3921 60.1026 20.5611 60.1026 19.5025C60.1026 18.4438 60.9303 17.6128 61.9846 17.6128C63.0232 17.6128 63.8614 18.4597 63.8614 19.5025C63.8614 20.5452 63.0232 21.3921 61.9846 21.3921Z" fill="url(#paint0_linear_24404_78517)"/>
<path d="M61.9586 13.3257C58.6269 13.3257 55.9172 16.057 55.9172 19.4129C55.9172 22.7687 58.6164 25.5 61.9375 25.5C65.2798 25.5 68 22.7687 68 19.4129C68 16.057 65.2903 13.3257 61.9586 13.3257ZM61.9375 24.706C59.0381 24.706 56.708 22.3241 56.708 19.4129C56.708 16.4804 59.0381 14.1197 61.9586 14.1197C64.8581 14.1197 67.2092 16.4804 67.2092 19.4129C67.2092 22.3241 64.8581 24.706 61.9375 24.706Z" fill="url(#paint1_linear_24404_78517)"/>
<path d="M9.84756 20.4392C9.65251 20.3069 9.4311 20.2381 9.19387 20.2381C8.85648 20.2381 8.5349 20.3863 8.30295 20.635C7.74942 21.2438 7.15899 21.5243 6.4473 21.5243C5.71981 21.5243 5.02394 21.1802 4.59166 20.6033C4.19628 20.0793 4.0803 19.4335 4.26481 18.7824C4.51786 17.8932 5.39296 17.2474 6.34714 17.2474L6.50002 17.2527C7.12209 17.3003 7.62817 17.5862 8.09735 18.1631C8.32931 18.449 8.67197 18.6077 9.03044 18.6077C9.27294 18.6077 9.5049 18.5336 9.69995 18.396L11.1233 17.385C11.408 17.1839 11.5872 16.8716 11.6241 16.5222C11.6558 16.1782 11.5451 15.8341 11.3078 15.5853C9.90028 14.0979 8.22387 13.3463 6.31551 13.3463C2.77292 13.3463 0 15.9982 0 19.3911C0 22.7788 2.83618 25.4307 6.45258 25.4307C8.35567 25.4307 10.0321 24.679 11.4396 23.1969C11.6768 22.9429 11.7928 22.5988 11.7559 22.2495C11.719 21.8948 11.5292 21.5825 11.2393 21.3814L9.84756 20.4392ZM10.8545 22.6517C9.51017 24.0703 7.98665 24.6367 6.44203 24.6367C3.29482 24.6367 0.780211 22.3659 0.780211 19.3911C0.780211 16.4322 3.15248 14.1403 6.30497 14.1403C7.84958 14.1403 9.37838 14.712 10.7227 16.1358C10.8861 16.3105 10.8545 16.6016 10.6594 16.7445L9.23604 17.7555C9.06207 17.8773 8.83012 17.8297 8.69833 17.6656C8.06572 16.8875 7.35404 16.5275 6.54747 16.4693C5.19264 16.3687 3.86944 17.2633 3.49514 18.576C2.92053 20.598 4.55476 22.3289 6.43676 22.3289C7.3435 22.3289 8.16061 21.9742 8.87756 21.1802C9.00936 21.032 9.23077 20.995 9.39419 21.1061L10.7859 22.0377C10.9863 22.1754 11.0232 22.4718 10.8545 22.6517Z" fill="url(#paint2_linear_24404_78517)"/>
<path d="M38.716 13.5531H36.8814C36.2278 13.5531 35.6953 14.0877 35.6953 14.7441V24.0336C35.6953 24.69 36.2278 25.2246 36.8814 25.2246H38.716C39.3697 25.2246 39.9021 24.69 39.9021 24.0336V14.7441C39.9021 14.0877 39.3697 13.5531 38.716 13.5531ZM39.1114 24.0336C39.1114 24.2506 38.9321 24.4306 38.716 24.4306H36.8814C36.6653 24.4306 36.4861 24.2506 36.4861 24.0336V14.7441C36.4861 14.527 36.6653 14.3471 36.8814 14.3471H38.716C38.9321 14.3471 39.1114 14.527 39.1114 14.7441V24.0336Z" fill="url(#paint3_linear_24404_78517)"/>
<path d="M47.9516 13.3732C44.8307 13.3732 42.3899 15.6334 42.3899 18.5235V24.039C42.3899 24.6954 42.9223 25.23 43.576 25.23H45.4106C46.0643 25.23 46.5967 24.6954 46.5967 24.039V18.9152C46.5967 18.3965 46.7285 17.1896 47.9516 17.1896C49.1482 17.1896 49.3275 18.2694 49.3275 18.9152V24.039C49.3275 24.6954 49.8599 25.23 50.5136 25.23H52.3482C53.0019 25.23 53.5343 24.6954 53.5343 24.039V18.5182C53.5343 15.6334 51.0829 13.3732 47.9516 13.3732ZM52.7435 24.0337C52.7435 24.2507 52.5643 24.4307 52.3482 24.4307H50.5136C50.2975 24.4307 50.1182 24.2507 50.1182 24.0337V18.9099C50.1182 17.3061 49.2273 16.3903 47.9516 16.3903C46.6969 16.3903 45.806 17.3061 45.806 18.9099V24.0337C45.806 24.2507 45.6267 24.4307 45.4106 24.4307H43.576C43.3599 24.4307 43.1806 24.2507 43.1806 24.0337V18.5182C43.1806 16.1786 45.1206 14.1619 47.9516 14.1619C50.8035 14.1619 52.7435 16.1786 52.7435 18.5182V24.0337Z" fill="url(#paint4_linear_24404_78517)"/>
<path d="M2.05628 12.4999H3.86974C4.52344 12.4999 5.05588 11.9653 5.05588 11.309V6.15869C5.05588 5.37 5.27729 4.43311 6.34218 4.43311C7.25946 4.43311 7.80771 5.07888 7.80771 6.15869V11.309C7.80771 11.9653 8.34016 12.4999 8.99385 12.4999H10.8284C11.4821 12.4999 12.0145 11.9653 12.0145 11.309V6.15869C12.0145 5.09476 12.5681 4.43311 13.459 4.43311C14.5397 4.43311 14.7664 5.37 14.7664 6.15869V11.309C14.7664 11.9653 15.2988 12.4999 15.9525 12.4999H17.7607C18.4144 12.4999 18.9468 11.9653 18.9468 11.309V5.79346C18.9468 2.84515 16.6062 0.622009 13.5012 0.622009C12.1622 0.622009 10.9286 1.02429 9.94276 1.76534C8.97804 1.03488 7.71282 0.622009 6.37908 0.622009C3.23714 0.622009 0.864868 2.84515 0.864868 5.79346V11.309C0.87014 11.9653 1.40258 12.4999 2.05628 12.4999ZM1.66617 5.79346C1.66617 3.43269 3.55872 1.41599 6.38963 1.41599C7.87098 1.41599 9.13092 1.96648 9.94803 2.81339C10.7915 1.96648 12.0251 1.41599 13.5064 1.41599C16.3584 1.41599 18.1614 3.43269 18.1614 5.79346V11.309C18.1614 11.526 17.9821 11.706 17.766 11.706H15.9525C15.7364 11.706 15.5571 11.526 15.5571 11.309V6.15869C15.5571 4.55485 14.7347 3.63913 13.459 3.63913C12.2043 3.63913 11.2238 4.55485 11.2238 6.15869V11.309C11.2238 11.526 11.0445 11.706 10.8284 11.706H8.99385C8.77771 11.706 8.59847 11.526 8.59847 11.309V6.15869C8.59847 4.55485 7.61793 3.63913 6.33691 3.63913C5.08224 3.63913 4.25985 4.55485 4.25985 6.15869V11.309C4.25985 11.526 4.08061 11.706 3.86447 11.706H2.051C1.83486 11.706 1.65563 11.526 1.65563 11.309V5.79346H1.66617Z" fill="url(#paint5_linear_24404_78517)"/>
<path d="M48.415 0.563599C47.076 0.563599 45.8424 0.965881 44.8566 1.70693C43.8919 0.976468 42.6266 0.563599 41.2929 0.563599C38.151 0.563599 35.7787 2.78674 35.7787 5.73505V11.2506C35.7787 11.9069 36.3111 12.4415 36.9648 12.4415H38.7783C39.432 12.4415 39.9644 11.9069 39.9644 11.2506V6.10028C39.9644 5.31159 40.1858 4.3747 41.2507 4.3747C42.168 4.3747 42.7163 5.02047 42.7163 6.10028V11.2506C42.7163 11.9069 43.2487 12.4415 43.9024 12.4415H45.737C46.3906 12.4415 46.9231 11.9069 46.9231 11.2506V6.10028C46.9231 5.03635 47.4766 4.3747 48.3675 4.3747C49.4482 4.3747 49.6749 5.31159 49.6749 6.10028V11.2506C49.6749 11.9069 50.2074 12.4415 50.8611 12.4415H52.6745C53.3282 12.4415 53.8607 11.9069 53.8607 11.2506V5.73505C53.8659 2.78674 51.52 0.563599 48.415 0.563599ZM53.0699 11.2506C53.0699 11.4676 52.8907 11.6475 52.6745 11.6475H50.8611C50.6449 11.6475 50.4657 11.4676 50.4657 11.2506V6.10028C50.4657 4.49644 49.6433 3.58072 48.3675 3.58072C47.1129 3.58072 46.1323 4.49644 46.1323 6.10028V11.2506C46.1323 11.4676 45.9531 11.6475 45.737 11.6475H43.9024C43.6863 11.6475 43.507 11.4676 43.507 11.2506V6.10028C43.507 4.49644 42.5265 3.58072 41.2455 3.58072C39.9908 3.58072 39.1684 4.49644 39.1684 6.10028V11.2506C39.1684 11.4676 38.9892 11.6475 38.773 11.6475H36.9595C36.7434 11.6475 36.5642 11.4676 36.5642 11.2506V5.73505C36.5642 3.37428 38.4567 1.35758 41.2876 1.35758C42.769 1.35758 44.0289 1.90807 44.846 2.75498C45.6895 1.90807 46.9231 1.35758 48.4044 1.35758C51.2564 1.35758 53.0594 3.37428 53.0594 5.73505V11.2506H53.0699Z" fill="url(#paint6_linear_24404_78517)"/>
<path d="M61.9846 9.36058C63.4449 9.36058 64.6574 8.16962 64.6574 6.67693C64.6574 5.18955 63.4502 3.99329 61.9846 3.99329C60.5033 3.99329 59.3119 5.18425 59.3119 6.67693C59.3119 8.16962 60.498 9.36058 61.9846 9.36058ZM61.9846 4.78727C63.0232 4.78727 63.8614 5.63418 63.8614 6.67693C63.8614 7.71969 63.0179 8.56661 61.9846 8.56661C60.9303 8.56661 60.1026 7.73557 60.1026 6.67693C60.1026 5.6183 60.9303 4.78727 61.9846 4.78727Z" fill="url(#paint7_linear_24404_78517)"/>
<path d="M61.9375 12.6743C65.2798 12.6743 68 9.94306 68 6.58717C68 3.23129 65.2903 0.5 61.9586 0.5C58.6269 0.5 55.9172 3.23129 55.9172 6.58717C55.9172 9.94306 58.6216 12.6743 61.9375 12.6743ZM61.9586 1.29398C64.8581 1.29398 67.2092 3.65474 67.2092 6.58717C67.2092 9.49843 64.8581 11.8804 61.9375 11.8804C59.0381 11.8804 56.708 9.49843 56.708 6.58717C56.7133 3.65474 59.0381 1.29398 61.9586 1.29398Z" fill="url(#paint8_linear_24404_78517)"/>
<path d="M17.9289 16.8241C16.4475 16.8241 15.2561 18.0151 15.2561 19.5077C15.2561 20.9951 16.4422 22.1914 17.9289 22.1914C19.3891 22.1914 20.6016 21.0004 20.6016 19.5077C20.6016 18.0151 19.3891 16.8241 17.9289 16.8241ZM17.9289 21.3921C16.8745 21.3921 16.0469 20.5611 16.0469 19.5025C16.0469 18.4438 16.8745 17.6128 17.9289 17.6128C18.9674 17.6128 19.8056 18.4597 19.8056 19.5025C19.8109 20.5452 18.9674 21.3921 17.9289 21.3921Z" fill="url(#paint9_linear_24404_78517)"/>
<path d="M22.7839 13.5533H20.9072C20.633 13.5586 20.3853 13.6539 20.1849 13.818C19.5313 13.5057 18.751 13.3469 17.7863 13.3257C14.908 13.3257 12.5199 15.2895 11.9874 18.1054C11.6237 20.0322 12.0823 21.9483 13.2474 23.3616C14.3439 24.6902 15.9834 25.4524 17.7441 25.4524C18.6667 25.4524 19.4838 25.2777 20.1639 24.9337C20.3695 25.1136 20.6383 25.2195 20.9335 25.2248H22.7786C23.4323 25.2248 23.9648 24.6902 23.9648 24.0338V14.7443C23.97 14.0879 23.4376 13.5533 22.7839 13.5533ZM23.1793 24.0338C23.1793 24.2508 23 24.4308 22.7839 24.4308H20.9388C20.7279 24.4308 20.5592 24.2614 20.554 24.0497V23.7321C20.554 23.7321 20.554 23.7321 20.5487 23.7321V23.7162L20.4749 23.785C19.7527 24.4043 18.8038 24.6584 17.7441 24.6584C14.4493 24.6584 12.1087 21.7101 12.7624 18.2536C13.2368 15.7606 15.3771 14.0614 17.9023 14.1197C18.8881 14.1408 19.7632 14.3684 20.4696 14.9242L20.5223 14.9613V14.7443C20.5223 14.5272 20.6963 14.3526 20.9124 14.3473H22.7734C22.9895 14.3473 23.1687 14.5272 23.1687 14.7443V24.0338H23.1793Z" fill="url(#paint10_linear_24404_78517)"/>
<path d="M27.6181 12.653C29.0678 12.653 30.4806 12.2136 31.5982 11.4144C31.8618 11.2238 32.0358 10.9327 32.0779 10.6045C32.1201 10.271 32.0199 9.93228 31.8091 9.67291L30.7916 8.45548C30.6915 8.33373 30.5649 8.23316 30.4226 8.16435H32.2044C32.5893 8.16435 32.9741 7.94204 33.1903 7.62974C33.5013 7.17452 33.3906 6.58169 33.3537 6.06825C33.3168 5.61303 33.2535 5.15253 33.1217 4.71319C32.9003 3.96685 32.5313 3.26286 32.0358 2.65943C31.0183 1.42612 29.5159 0.722121 27.9396 0.595085C27.7604 0.579205 27.5759 0.573914 27.3966 0.573914C23.833 0.573914 21.1497 3.17287 21.1497 6.61874C21.1444 9.9958 23.9858 12.653 27.6181 12.653ZM27.3914 1.3626C30.5439 1.3626 32.5946 3.65455 32.5946 6.61345V6.71402H32.5893V6.97868C32.5893 7.1957 32.4153 7.37037 32.1992 7.37037H24.5552C24.9189 8.69897 26.2 9.64115 27.6128 9.64115C28.3561 9.64115 29.0151 9.44001 29.616 8.93716C29.79 8.79424 30.0378 8.79953 30.1801 8.96892L31.1976 10.1864C31.3452 10.361 31.3241 10.6363 31.1343 10.7686C30.1643 11.462 28.9149 11.8643 27.6075 11.8643C24.455 11.8643 21.9246 9.57234 21.9246 6.61874C21.9351 3.65455 24.2389 1.3626 27.3914 1.3626ZM29.363 8.15906C29.2734 8.2014 29.189 8.25434 29.1152 8.31785C28.6829 8.67779 28.219 8.83659 27.6181 8.83659C26.9749 8.83659 26.3687 8.57722 25.9311 8.15377H29.363V8.15906Z" fill="url(#paint11_linear_24404_78517)"/>
<path d="M29.8324 5.21101C29.4423 4.29529 28.5777 3.586 27.3916 3.586C26.2265 3.586 25.2671 4.22647 24.7874 5.21101H29.8324ZM27.3916 4.37998C27.5286 4.37998 27.6604 4.39586 27.787 4.41703H26.9698C27.1069 4.39056 27.244 4.37998 27.3916 4.37998Z" fill="url(#paint12_linear_24404_78517)"/>
<path d="M33.2695 18.5655C33.0059 18.3855 32.7318 18.232 32.4577 18.0997C32.4735 18.0997 32.4893 18.0997 32.5051 18.0997C32.9163 18.0997 33.3064 17.8826 33.5226 17.528L34.2922 16.2576C34.6244 15.7071 34.4609 14.9767 33.918 14.6326C32.6527 13.8281 31.2083 13.3676 29.9536 13.3676C27.7922 13.3676 25.4621 14.5426 25.4621 17.1204C25.4621 18.2691 26.0473 19.2801 27.1122 19.9735C27.7764 20.4022 28.4881 20.6616 29.1734 20.9156L29.6848 21.1062C30.1645 21.2915 30.407 21.4238 30.5335 21.5138C30.5177 21.5191 30.5072 21.5244 30.4861 21.535C30.3174 21.5932 30.1012 21.6249 29.8535 21.6249C29.2472 21.6249 28.467 21.3391 27.6077 20.8045C27.4179 20.688 27.1965 20.6245 26.9751 20.6245C26.5481 20.6245 26.1527 20.8574 25.9418 21.2332L25.1775 22.6148C24.9613 23.107 25.1036 23.6681 25.6045 24.0598C27.1122 24.9702 28.5144 25.4149 29.8956 25.4149C32.3417 25.4149 34.8194 24.0704 34.8194 21.5032C34.8247 20.3016 34.2712 19.2589 33.2695 18.5655ZM29.9009 24.6156C28.4986 24.6156 27.2018 24.0916 26.0209 23.377C25.8839 23.2658 25.8417 23.0859 25.9102 22.9271L26.6377 21.6196C26.7484 21.4185 27.0015 21.3603 27.1912 21.482C27.982 21.9743 28.9415 22.4242 29.8535 22.4242C30.1539 22.4242 30.4702 22.3872 30.7497 22.2866C30.95 22.2125 31.1345 22.096 31.261 21.9214C31.8462 21.0956 30.523 20.5875 29.9642 20.3705C29.1418 20.0529 28.2825 19.7935 27.5339 19.3118C26.7642 18.8143 26.2476 18.0732 26.2476 17.131C26.2476 15.0931 28.1665 14.1721 29.9431 14.1721C31.1608 14.1721 32.4524 14.6591 33.4804 15.3102C33.6596 15.4266 33.7124 15.6701 33.5964 15.8501L32.8267 17.1204C32.716 17.3004 32.484 17.3639 32.2995 17.2633C31.7407 16.9563 31.1819 16.6335 30.5599 16.4694C30.0696 16.3423 28.8677 16.2629 28.8835 17.0093C28.8835 17.0622 28.894 17.1151 28.9046 17.1734C29.0574 17.835 29.922 18.0097 30.4597 18.2002C31.261 18.4808 32.0992 18.7349 32.8056 19.2218C33.5753 19.7564 34.0181 20.5504 34.0181 21.4979C34.0339 23.6734 31.7987 24.6156 29.9009 24.6156ZM31.4666 17.7027C31.319 17.6497 30.465 17.3586 30.465 17.3586C30.3648 17.3269 30.1487 17.258 29.9694 17.1787C30.1329 17.1839 30.2857 17.2104 30.3701 17.2316C30.7286 17.3269 31.0712 17.491 31.4666 17.7027Z" fill="url(#paint13_linear_24404_78517)"/>
<path d="M30.3169 10.2446L29.8266 9.66239C29.0253 10.07 28.4454 10.2923 27.6125 10.2605C25.9519 10.1864 24.091 9.24423 23.6587 7.5557C23.5216 7.02109 23.5216 6.59234 23.5216 6.59234H31.8035C31.7877 3.98809 29.9742 2.05078 27.3911 2.05078C24.7341 2.05078 22.7256 3.96692 22.7256 6.50765C22.7256 9.00604 24.8712 11.028 27.6125 11.028C28.5772 11.0227 29.5314 10.7052 30.3169 10.2446ZM23.9328 4.77148C24.6234 3.41113 25.9466 2.68067 27.3911 2.68067C28.7933 2.68067 30.1692 3.49582 30.728 4.79266C30.8809 5.14201 31.0285 5.89364 31.0285 5.89364H23.5532C23.548 5.89893 23.6798 5.26904 23.9328 4.77148Z" fill="url(#paint14_linear_24404_78517)"/>
<path d="M16.3527 6.05279V10.8061H17.3701V5.68756C17.3701 3.90904 16.0417 2.10406 13.506 2.10406C12.3198 2.10406 11.2549 2.51693 10.5063 3.26857L9.937 3.84023L9.3782 3.26327C8.66652 2.52752 7.57528 2.10406 6.38387 2.10406C4.14339 2.10406 2.45117 3.64438 2.45117 5.68756V10.8061H3.46861V6.05279C3.46861 4.04137 4.59676 2.73925 6.33642 2.73925C8.13408 2.73925 9.38874 4.10489 9.38874 6.05279V10.8061H10.4325V6.05279C10.4325 4.0996 11.6767 2.73925 13.4585 2.73925C15.2193 2.73396 16.3527 4.03608 16.3527 6.05279Z" fill="url(#paint15_linear_24404_78517)"/>
<path d="M48.4147 2.04565C47.2285 2.04565 46.1636 2.45852 45.4098 3.21016L44.8405 3.78182L44.2816 3.20486C43.57 2.46911 42.4787 2.04565 41.2873 2.04565C39.0468 2.04565 37.3546 3.58597 37.3546 5.62915V10.7477H38.3721V5.99438C38.3721 3.98296 39.5002 2.68084 41.2399 2.68084C43.0375 2.68084 44.2922 4.04648 44.2922 5.99438V10.7477H45.336V5.99438C45.336 4.04119 46.5801 2.68084 48.362 2.68084C50.1174 2.68084 51.2509 3.98296 51.2509 5.99438V10.7477H52.2683V5.62915C52.2788 3.85063 50.9556 2.04565 48.4147 2.04565Z" fill="url(#paint16_linear_24404_78517)"/>
<path d="M61.9371 10.9805C64.4095 10.9805 66.418 8.96378 66.418 6.48127C66.418 3.99876 64.4201 1.98206 61.9582 1.98206C59.5015 1.98206 57.4983 3.99876 57.4983 6.48127C57.4983 8.96378 59.491 10.9805 61.9371 10.9805ZM61.9845 3.09363C63.8929 3.09363 65.448 4.65512 65.448 6.57125C65.448 8.48739 63.8929 10.0489 61.9845 10.0489C60.0762 10.0489 58.521 8.49268 58.521 6.57125C58.521 4.64982 60.0762 3.09363 61.9845 3.09363Z" fill="url(#paint17_linear_24404_78517)"/>
<path d="M61.9582 14.8077C59.5015 14.8077 57.4983 16.8244 57.4983 19.307C57.4983 21.7895 59.4857 23.8062 61.9318 23.8062C64.4042 23.8062 66.4128 21.7895 66.4128 19.307C66.418 16.8244 64.4201 14.8077 61.9582 14.8077ZM61.9845 22.8746C60.0762 22.8746 58.521 21.3131 58.521 19.3969C58.521 17.4808 60.0762 15.9193 61.9845 15.9193C63.8929 15.9193 65.448 17.4755 65.448 19.3969C65.448 21.3131 63.8929 22.8746 61.9845 22.8746Z" fill="url(#paint18_linear_24404_78517)"/>
<path d="M6.44699 23.012C4.32249 23.012 2.59864 21.3394 2.59864 19.2856C2.59864 17.2319 4.2645 15.5592 6.30993 15.5592C7.38009 15.5592 8.30791 15.9721 9.08285 16.7925L9.83143 16.2579C8.80872 15.3104 7.62786 14.834 6.30993 14.834C3.61081 14.834 1.57593 16.7502 1.57593 19.2909C1.57593 21.7893 3.71624 23.7425 6.44699 23.7425C7.75437 23.7425 8.92997 23.2661 9.95268 22.3292L9.241 21.8475C8.4397 22.615 7.50133 23.012 6.44699 23.012Z" fill="url(#paint19_linear_24404_78517)"/>
<path d="M21.3236 16.6127C21.3236 16.6127 20.2429 14.8077 17.7441 14.8077C15.2927 14.8077 13.4476 16.7398 13.4476 19.307C13.4476 21.8477 15.2927 23.7638 17.7441 23.7638C20.2429 23.7638 21.3447 22.0012 21.3447 22.0012V23.5309H22.3885V15.0353H21.3236V16.6127ZM17.9286 22.8746C16.0202 22.8746 14.4651 21.3131 14.4651 19.3969C14.4651 17.4808 16.0202 15.9193 17.9286 15.9193C19.8369 15.9193 21.3921 17.4755 21.3921 19.3969C21.3921 21.3131 19.8422 22.8746 17.9286 22.8746Z" fill="url(#paint20_linear_24404_78517)"/>
<path d="M30.4812 18.9307C29.3689 18.5496 28.109 18.1155 28.109 16.8981C28.109 16.2153 28.5887 15.4848 29.9277 15.4848C30.7553 15.4848 31.6357 15.8871 32.358 16.2735L32.727 15.6648C31.8097 15.146 30.8081 14.8496 29.9488 14.8496C28.8681 14.8496 27.0441 15.3048 27.0441 17.0092C27.0441 18.2372 28.1195 18.7242 29.7643 19.3277C30.9504 19.7617 32.1787 20.2116 32.1787 21.4079C32.1787 22.4348 31.2667 23.0964 29.8592 23.0964C29.042 23.0964 28.1248 22.8106 27.1337 22.2495L26.8174 22.8212C27.9086 23.4193 28.9261 23.7157 29.9066 23.7157C31.0611 23.7157 33.2436 23.2287 33.2436 21.392C33.2436 19.9893 32.1524 19.5076 30.4812 18.9307Z" fill="url(#paint21_linear_24404_78517)"/>
<path d="M38.3149 15.0352H37.2764V23.5307H38.3149V15.0352Z" fill="url(#paint22_linear_24404_78517)"/>
<path d="M47.9511 14.8496C45.679 14.8496 43.9709 16.3793 43.9709 18.4119V23.5304H45.0147V18.7983C45.0147 16.8134 46.1956 15.4848 47.9511 15.4848C49.7224 15.4848 50.9085 16.8187 50.9085 18.7983V23.5304H51.9523V18.4119C51.9523 16.3846 50.2285 14.8496 47.9511 14.8496Z" fill="url(#paint23_linear_24404_78517)"/>
<defs>
<linearGradient id="paint0_linear_24404_78517" x1="3.28039" y1="19.504" x2="72.7381" y2="19.504" gradientUnits="userSpaceOnUse">
<stop stop-color="#D203A0"/>
<stop offset="1" stop-color="#5900A3"/>
</linearGradient>
<linearGradient id="paint1_linear_24404_78517" x1="3.28072" y1="19.4126" x2="72.7384" y2="19.4126" gradientUnits="userSpaceOnUse">
<stop stop-color="#D203A0"/>
<stop offset="1" stop-color="#5900A3"/>
</linearGradient>
<linearGradient id="paint2_linear_24404_78517" x1="3.28053" y1="19.3895" x2="72.7382" y2="19.3895" gradientUnits="userSpaceOnUse">
<stop stop-color="#D203A0"/>
<stop offset="1" stop-color="#5900A3"/>
</linearGradient>
<linearGradient id="paint3_linear_24404_78517" x1="3.28109" y1="19.3899" x2="72.7388" y2="19.3899" gradientUnits="userSpaceOnUse">
<stop stop-color="#D203A0"/>
<stop offset="1" stop-color="#5900A3"/>
</linearGradient>
<linearGradient id="paint4_linear_24404_78517" x1="3.28058" y1="19.2983" x2="72.7383" y2="19.2983" gradientUnits="userSpaceOnUse">
<stop stop-color="#D203A0"/>
<stop offset="1" stop-color="#5900A3"/>
</linearGradient>
<linearGradient id="paint5_linear_24404_78517" x1="3.28084" y1="6.55875" x2="72.7386" y2="6.55875" gradientUnits="userSpaceOnUse">
<stop stop-color="#D203A0"/>
<stop offset="1" stop-color="#5900A3"/>
</linearGradient>
<linearGradient id="paint6_linear_24404_78517" x1="3.2801" y1="6.50457" x2="72.7378" y2="6.50457" gradientUnits="userSpaceOnUse">
<stop stop-color="#D203A0"/>
<stop offset="1" stop-color="#5900A3"/>
</linearGradient>
<linearGradient id="paint7_linear_24404_78517" x1="3.28039" y1="6.67731" x2="72.7381" y2="6.67731" gradientUnits="userSpaceOnUse">
<stop stop-color="#D203A0"/>
<stop offset="1" stop-color="#5900A3"/>
</linearGradient>
<linearGradient id="paint8_linear_24404_78517" x1="3.28072" y1="6.58585" x2="72.7384" y2="6.58585" gradientUnits="userSpaceOnUse">
<stop stop-color="#D203A0"/>
<stop offset="1" stop-color="#5900A3"/>
</linearGradient>
<linearGradient id="paint9_linear_24404_78517" x1="3.2803" y1="19.504" x2="72.738" y2="19.504" gradientUnits="userSpaceOnUse">
<stop stop-color="#D203A0"/>
<stop offset="1" stop-color="#5900A3"/>
</linearGradient>
<linearGradient id="paint10_linear_24404_78517" x1="3.28009" y1="19.39" x2="72.7378" y2="19.39" gradientUnits="userSpaceOnUse">
<stop stop-color="#D203A0"/>
<stop offset="1" stop-color="#5900A3"/>
</linearGradient>
<linearGradient id="paint11_linear_24404_78517" x1="3.77205" y1="6.60895" x2="73.3181" y2="6.60895" gradientUnits="userSpaceOnUse">
<stop stop-color="#D203A0"/>
<stop offset="1" stop-color="#5900A3"/>
</linearGradient>
<linearGradient id="paint12_linear_24404_78517" x1="3.79432" y1="4.39755" x2="73.252" y2="4.39755" gradientUnits="userSpaceOnUse">
<stop stop-color="#D203A0"/>
<stop offset="1" stop-color="#5900A3"/>
</linearGradient>
<linearGradient id="paint13_linear_24404_78517" x1="3.28028" y1="19.3892" x2="72.738" y2="19.3892" gradientUnits="userSpaceOnUse">
<stop stop-color="#D203A0"/>
<stop offset="1" stop-color="#5900A3"/>
</linearGradient>
<linearGradient id="paint14_linear_24404_78517" x1="4.12029" y1="6.53555" x2="62.9923" y2="6.53555" gradientUnits="userSpaceOnUse">
<stop stop-color="#D203A0"/>
<stop offset="1" stop-color="#5900A3"/>
</linearGradient>
<linearGradient id="paint15_linear_24404_78517" x1="3.60689" y1="6.45226" x2="62.4788" y2="6.45226" gradientUnits="userSpaceOnUse">
<stop stop-color="#D203A0"/>
<stop offset="1" stop-color="#5900A3"/>
</linearGradient>
<linearGradient id="paint16_linear_24404_78517" x1="3.6063" y1="6.39735" x2="62.4783" y2="6.39735" gradientUnits="userSpaceOnUse">
<stop stop-color="#D203A0"/>
<stop offset="1" stop-color="#5900A3"/>
</linearGradient>
<linearGradient id="paint17_linear_24404_78517" x1="3.60675" y1="6.47868" x2="62.4787" y2="6.47868" gradientUnits="userSpaceOnUse">
<stop stop-color="#D203A0"/>
<stop offset="1" stop-color="#5900A3"/>
</linearGradient>
<linearGradient id="paint18_linear_24404_78517" x1="3.60677" y1="19.3061" x2="62.4787" y2="19.3061" gradientUnits="userSpaceOnUse">
<stop stop-color="#D203A0"/>
<stop offset="1" stop-color="#5900A3"/>
</linearGradient>
<linearGradient id="paint19_linear_24404_78517" x1="3.60675" y1="19.2827" x2="62.4787" y2="19.2827" gradientUnits="userSpaceOnUse">
<stop stop-color="#D203A0"/>
<stop offset="1" stop-color="#5900A3"/>
</linearGradient>
<linearGradient id="paint20_linear_24404_78517" x1="3.60655" y1="19.2832" x2="62.4785" y2="19.2832" gradientUnits="userSpaceOnUse">
<stop stop-color="#D203A0"/>
<stop offset="1" stop-color="#5900A3"/>
</linearGradient>
<linearGradient id="paint21_linear_24404_78517" x1="3.60724" y1="19.2827" x2="62.4792" y2="19.2827" gradientUnits="userSpaceOnUse">
<stop stop-color="#D203A0"/>
<stop offset="1" stop-color="#5900A3"/>
</linearGradient>
<linearGradient id="paint22_linear_24404_78517" x1="3.60712" y1="19.283" x2="62.4791" y2="19.283" gradientUnits="userSpaceOnUse">
<stop stop-color="#D203A0"/>
<stop offset="1" stop-color="#5900A3"/>
</linearGradient>
<linearGradient id="paint23_linear_24404_78517" x1="3.60664" y1="19.191" x2="62.4786" y2="19.191" gradientUnits="userSpaceOnUse">
<stop stop-color="#D203A0"/>
<stop offset="1" stop-color="#5900A3"/>
</linearGradient>
</defs>
</svg>
