<svg xmlns="http://www.w3.org/2000/svg" width="148" height="36" fill="none"><path fill="#fff" d="M82.726 24.845c-1.254 0-2.374-.285-3.361-.855a6.465 6.465 0 0 1-2.304-2.351c-.549-.998-.823-2.122-.823-3.373 0-1.282.275-2.422.823-3.42a5.94 5.94 0 0 1 2.257-2.328c.956-.57 2.053-.854 3.29-.854.925 0 1.771.182 2.54.546.767.348 1.457.878 2.068 1.591.22.253.298.515.235.784s-.235.506-.517.712a.922.922 0 0 1-.729.166 1.512 1.512 0 0 1-.728-.427c-.768-.823-1.724-1.235-2.868-1.235-.8 0-1.505.19-2.116.57a3.775 3.775 0 0 0-1.434 1.544c-.345.665-.517 1.448-.517 2.351 0 .855.172 1.615.517 2.28.36.665.854 1.195 1.481 1.591.627.38 1.356.57 2.186.57.549 0 1.027-.063 1.434-.19a3.593 3.593 0 0 0 1.152-.641c.25-.206.51-.317.776-.332a.881.881 0 0 1 .705.213c.266.222.415.475.447.76.03.27-.063.515-.282.736-1.129 1.061-2.54 1.592-4.232 1.592ZM94.964 24.845c-1.144 0-2.17-.285-3.08-.855a6.346 6.346 0 0 1-2.162-2.351c-.518-.998-.776-2.122-.776-3.373 0-1.25.282-2.375.846-3.372a6.406 6.406 0 0 1 2.327-2.352c.988-.586 2.092-.878 3.315-.878 1.222 0 2.32.292 3.29.878a6.227 6.227 0 0 1 2.304 2.351c.58.998.87 2.122.87 3.373h-.917c0 1.25-.266 2.375-.799 3.373a6.158 6.158 0 0 1-2.139 2.35c-.909.57-1.935.856-3.08.856Zm.47-2.138c.799 0 1.512-.19 2.139-.57a4.234 4.234 0 0 0 1.48-1.591c.361-.68.541-1.44.541-2.28 0-.855-.18-1.615-.54-2.28a4.012 4.012 0 0 0-1.481-1.591c-.627-.396-1.34-.594-2.14-.594-.783 0-1.496.198-2.138.594-.627.38-1.129.91-1.505 1.591-.36.665-.54 1.425-.54 2.28 0 .84.18 1.6.54 2.28a4.424 4.424 0 0 0 1.505 1.591c.642.38 1.355.57 2.139.57Zm5.265 2.066a1.22 1.22 0 0 1-.87-.332c-.219-.238-.328-.53-.328-.879v-3.634l.446-2.517 1.951.855v5.296a1.2 1.2 0 0 1-.352.879c-.22.222-.502.332-.847.332ZM108.734 24.845c-1.097 0-2.116-.166-3.056-.499-.924-.348-1.645-.784-2.162-1.306-.236-.254-.337-.539-.306-.855.047-.333.204-.602.47-.808.314-.253.619-.356.917-.308.313.031.58.166.799.403.267.301.69.586 1.27.855a4.99 4.99 0 0 0 1.974.38c.909 0 1.599-.15 2.069-.451.486-.3.736-.689.752-1.164.016-.475-.212-.886-.682-1.235-.454-.348-1.293-.633-2.515-.855-1.583-.316-2.735-.791-3.456-1.425-.705-.633-1.057-1.409-1.057-2.327 0-.808.235-1.473.705-1.995.47-.539 1.073-.934 1.81-1.188a6.655 6.655 0 0 1 2.304-.403c1.034 0 1.951.166 2.75.498.799.333 1.434.792 1.904 1.378.219.253.321.522.306.807-.016.27-.149.499-.4.689-.251.174-.549.23-.893.166a1.68 1.68 0 0 1-.87-.427c-.392-.38-.815-.642-1.269-.784-.455-.143-.98-.214-1.575-.214-.69 0-1.278.119-1.763.357-.471.237-.706.585-.706 1.044 0 .285.071.547.212.784.157.222.454.428.893.618.439.174 1.081.348 1.928.522 1.175.238 2.1.539 2.774.903.689.364 1.183.791 1.48 1.282.298.475.447 1.03.447 1.663 0 .728-.196 1.385-.588 1.971-.376.586-.94 1.053-1.692 1.401-.737.349-1.661.523-2.774.523ZM116.843 24.75a1.22 1.22 0 0 1-.869-.333c-.22-.237-.33-.53-.33-.879V12.97c0-.364.11-.657.33-.879.235-.222.525-.332.869-.332.361 0 .651.11.87.332.219.222.329.515.329.879v10.568c0 .349-.11.642-.329.88-.219.22-.509.332-.87.332Zm0-15.105c-.423 0-.791-.15-1.105-.451a1.58 1.58 0 0 1-.446-1.117c0-.427.149-.791.446-1.092a1.506 1.506 0 0 1 1.105-.475c.423 0 .784.158 1.082.475.313.3.47.665.47 1.092 0 .428-.157.8-.47 1.117-.298.3-.659.45-1.082.45ZM131.953 24.773a1.22 1.22 0 0 1-.87-.332 1.244 1.244 0 0 1-.329-.879V17.72c0-.903-.165-1.639-.494-2.209a3.034 3.034 0 0 0-1.34-1.259c-.548-.285-1.183-.427-1.904-.427a3.9 3.9 0 0 0-1.786.404c-.533.269-.956.633-1.27 1.092-.313.443-.47.958-.47 1.544h-1.481c0-.998.235-1.884.705-2.66a5.257 5.257 0 0 1 1.975-1.877c.831-.459 1.763-.688 2.797-.688 1.082 0 2.045.237 2.892.712.862.46 1.535 1.14 2.021 2.043.502.902.752 2.01.752 3.325v5.842a1.2 1.2 0 0 1-.352.879c-.22.222-.502.332-.846.332Zm-9.662 0c-.345 0-.634-.11-.87-.332a1.248 1.248 0 0 1-.329-.879V12.97c0-.364.11-.657.329-.879.236-.222.525-.332.87-.332.361 0 .651.11.87.332.219.222.329.515.329.879v10.592c0 .349-.11.641-.329.879-.219.222-.509.332-.87.332ZM141.535 24.845c-1.269 0-2.39-.277-3.362-.831a6.282 6.282 0 0 1-2.303-2.328c-.549-.997-.823-2.137-.823-3.42 0-1.298.274-2.438.823-3.42a6.058 6.058 0 0 1 2.303-2.328c.972-.57 2.093-.854 3.362-.854 1.254 0 2.366.284 3.338.854a5.886 5.886 0 0 1 2.28 2.328c.564.982.846 2.122.846 3.42 0 1.283-.274 2.423-.822 3.42a6.108 6.108 0 0 1-2.281 2.328c-.971.554-2.092.83-3.361.83Zm0-2.138c.815 0 1.536-.19 2.163-.57a3.893 3.893 0 0 0 1.457-1.567c.361-.665.541-1.433.541-2.304 0-.87-.18-1.639-.541-2.304a3.857 3.857 0 0 0-1.457-1.591c-.627-.38-1.348-.57-2.163-.57-.815 0-1.536.19-2.163.57-.627.38-1.12.91-1.481 1.591-.36.665-.54 1.433-.54 2.304 0 .87.18 1.639.54 2.304a4.057 4.057 0 0 0 1.481 1.567c.627.38 1.348.57 2.163.57Z"/><path fill="#FF1A7A" d="M29.048 30.308c-.344 0-.634-.12-.87-.357-.219-.221-.329-.506-.329-.855v-10.83c.016-1.25.306-2.375.87-3.372a6.23 6.23 0 0 1 2.304-2.352c.972-.585 2.069-.878 3.291-.878 1.238 0 2.343.293 3.314.878a6.229 6.229 0 0 1 2.304 2.352c.58.997.87 2.121.87 3.372s-.267 2.375-.8 3.373a6.16 6.16 0 0 1-2.139 2.351c-.908.57-1.935.855-3.079.855-.925 0-1.779-.19-2.562-.57a6.238 6.238 0 0 1-1.975-1.591v6.412c0 .349-.11.634-.329.855-.22.238-.51.357-.87.357Zm5.266-7.6c.8 0 1.512-.19 2.14-.57a4.234 4.234 0 0 0 1.48-1.592c.376-.68.564-1.44.564-2.28 0-.855-.188-1.615-.564-2.28a4.012 4.012 0 0 0-1.48-1.591c-.628-.396-1.34-.594-2.14-.594-.784 0-1.497.198-2.14.594-.626.38-1.12.91-1.48 1.591-.36.665-.54 1.425-.54 2.28 0 .84.18 1.6.54 2.28.36.665.854 1.196 1.48 1.591.643.38 1.356.57 2.14.57ZM43.931 24.75a1.22 1.22 0 0 1-.87-.332c-.219-.238-.329-.531-.329-.88V12.97c0-.364.11-.657.33-.879a1.22 1.22 0 0 1 .87-.332c.36 0 .65.11.869.332.22.222.33.515.33.879v10.569c0 .348-.11.641-.33.878-.22.222-.51.333-.87.333Zm0-15.105c-.423 0-.791-.15-1.105-.451a1.577 1.577 0 0 1-.446-1.117c0-.427.149-.791.446-1.092a1.505 1.505 0 0 1 1.105-.475c.423 0 .784.158 1.082.475.313.3.47.665.47 1.092 0 .428-.157.8-.47 1.117-.298.3-.659.45-1.082.45ZM58.57 24.774a1.22 1.22 0 0 1-.87-.333c-.219-.237-.328-.53-.328-.878V17.72c0-.902-.165-1.639-.494-2.209-.33-.57-.776-.99-1.34-1.258-.548-.286-1.183-.428-1.904-.428-.658 0-1.254.135-1.787.404a3.31 3.31 0 0 0-1.269 1.092c-.313.444-.47.958-.47 1.544h-1.481c0-.997.235-1.884.705-2.66a5.258 5.258 0 0 1 1.975-1.876c.83-.46 1.763-.69 2.797-.69 1.081 0 2.045.238 2.891.713.862.46 1.536 1.14 2.022 2.043.502.902.752 2.01.752 3.325v5.843a1.2 1.2 0 0 1-.352.878c-.22.222-.502.333-.847.333Zm-9.661 0a1.22 1.22 0 0 1-.87-.333c-.22-.237-.329-.53-.329-.878V12.97c0-.364.11-.657.33-.879a1.22 1.22 0 0 1 .869-.332c.36 0 .65.11.87.332.22.222.329.515.329.879v10.592c0 .349-.11.642-.33.88-.219.22-.508.332-.869.332ZM64.58 20l-1.458-1.615 7.217-6.508c.235-.221.494-.324.776-.308.297.015.548.142.752.38.22.237.321.498.305.783-.015.285-.14.539-.376.76L64.58 20Zm-1.105 4.75c-.345 0-.627-.103-.846-.309-.204-.221-.306-.506-.306-.855V7.365c0-.348.102-.625.306-.831.22-.222.501-.333.846-.333s.619.111.823.333c.22.206.329.483.329.831v16.221c0 .349-.11.634-.33.855-.203.206-.477.309-.822.309Zm8.392-.119c-.25.206-.533.293-.846.261-.298-.015-.549-.15-.753-.403l-4.772-5.962 1.646-1.567 4.89 6.08c.203.253.29.53.258.831-.016.285-.157.539-.423.76Z"/><path fill="#FF1A7A" fill-rule="evenodd" d="M14.723 2.25c-1.352 0-2.598.938-2.598 2.615 0 .548.28 1.187.93 1.981.645.788 1.522 1.574 2.488 2.436l.038.034c.921.822 1.925 1.717 2.692 2.654.773.945 1.442 2.09 1.442 3.416 0 2.15-.768 3.943-2.213 5.084-1.127.89-2.564 1.303-4.14 1.266v4.926c1.369.326 2.436.669 3.037.929.565.245.827.906.584 1.477a1.11 1.11 0 0 1-1.462.591c-.414-.18-1.168-.427-2.16-.681v5.897A1.12 1.12 0 0 1 12.249 36a1.12 1.12 0 0 1-1.113-1.125v-6.387c-1.843-.343-4.052-.613-6.31-.613a1.12 1.12 0 0 1-1.113-1.125c0-.4.158-.891.352-1.345.215-.503.541-1.113 1.003-1.792.695-1.021 1.703-2.208 3.121-3.427a19.404 19.404 0 0 0-1.182-.472c-1.616-.576-3.344-.853-5.502-.036-.341.13-.725.082-1.025-.128-.3-.21-.479-.556-.479-.925C0 13.629 3.592 10 8.537 10c1.432 0 2.58.365 3.478.97.892.6 1.473 1.393 1.848 2.152a1.13 1.13 0 0 1-.498 1.51 1.108 1.108 0 0 1-1.494-.504c-.243-.491-.59-.949-1.09-1.286-.494-.332-1.202-.592-2.244-.592-3.186 0-5.547 1.927-6.156 4.843 2.06-.408 3.824-.05 5.367.5.718.256 1.414.564 2.042.843l.549.242c.792.343 1.462.6 2.097.713 1.63.273 2.877-.048 3.695-.694.804-.635 1.357-1.712 1.357-3.311 0-.549-.28-1.188-.93-1.982-.646-.788-1.523-1.574-2.489-2.435l-.038-.034c-.921-.822-1.925-1.717-2.692-2.655-.773-.944-1.441-2.089-1.441-3.415C9.898 1.734 12.362 0 14.723 0c.764 0 1.94.186 2.957.904.92.65 1.626 1.676 1.817 3.143 1.154.512 1.974 1.428 2.26 2.584.345 1.394-.151 2.877-1.3 4.031a1.106 1.106 0 0 1-1.575-.004 1.133 1.133 0 0 1 .005-1.591c.706-.71.828-1.41.71-1.89-.117-.47-.527-.988-1.437-1.222a1.123 1.123 0 0 1-.84-1.09c0-1.204-.45-1.788-.915-2.116-.529-.373-1.21-.499-1.682-.499ZM10.52 21.176c-1.765 1.355-2.91 2.67-3.618 3.711-.193.283-.352.543-.482.778 1.667.083 3.276.285 4.714.538v-4.82a11.276 11.276 0 0 1-.614-.207Z" clip-rule="evenodd"/></svg>