<svg width="109" height="30" viewBox="0 0 109 30" fill="none" xmlns="http://www.w3.org/2000/svg">
<g clip-path="url(#clip0_319_7996)">
<path d="M7.58398 7.49194H17.09C17.3347 7.49194 17.5689 7.4982 17.7906 7.5107C18.0123 7.52321 18.3219 7.5649 18.7214 7.63577C19.1209 7.70664 19.4827 7.8046 19.809 7.92758C20.1332 8.05056 20.4803 8.23816 20.8485 8.49037C21.2166 8.74258 21.5261 9.04065 21.7792 9.38249C22.0302 9.72433 22.2393 10.1621 22.4046 10.6915C22.5698 11.2209 22.6534 11.8233 22.6534 12.4945C22.6534 14.6393 21.8608 16.1714 20.2775 17.0885L22.9295 21.101L17.9747 21.0822L15.764 17.8827H11.8779V21.101H7.58608V7.49194H7.58398ZM16.6842 13.9077C17.753 13.9077 18.2863 13.4804 18.2863 12.6279C18.2863 11.8525 17.7279 11.4648 16.611 11.4648H11.8779V13.9077H16.6863H16.6842Z" fill="white"/>
<path d="M32.4709 16.6236C32.1028 16.6757 31.6907 16.7341 31.2369 16.7987C30.783 16.8633 30.463 16.9092 30.279 16.9342C30.0949 16.9592 29.9067 17.003 29.7163 17.0593C29.526 17.1176 29.3754 17.1843 29.2646 17.2635H38.4924V21.1009H24.3662V19.4521H24.385C24.385 18.7935 24.4771 18.189 24.6611 17.6387C24.8452 17.0905 25.0669 16.6236 25.3241 16.2422C25.5814 15.8607 25.939 15.5147 26.3929 15.2041C26.8468 14.8936 27.2525 14.6518 27.6081 14.4767C27.9636 14.3016 28.4342 14.1349 29.0178 13.9723C29.6013 13.8118 30.0489 13.7013 30.3626 13.6429C30.6764 13.5846 31.1093 13.5033 31.6615 13.4011C31.7096 13.4011 31.7472 13.3949 31.7723 13.3824C32.4353 13.2782 32.9603 13.1573 33.3472 13.0134C33.7342 12.8717 34.004 12.7133 34.1587 12.5382C34.3135 12.3631 34.3888 12.1547 34.3888 11.9087C34.3888 11.792 34.3554 11.6836 34.2884 11.5794C34.2215 11.4752 34.1002 11.3689 33.9287 11.2605C33.7572 11.15 33.4915 11.0645 33.136 10.9978C32.7804 10.9332 32.3433 10.902 31.8288 10.902C31.423 10.902 31.0612 10.9311 30.7412 10.9895C30.4212 11.0479 30.1618 11.1187 29.959 11.2021C29.7561 11.2855 29.5846 11.4022 29.4424 11.5502C29.3001 11.6982 29.1956 11.8212 29.1286 11.9191C29.0617 12.015 29.0052 12.1526 28.9634 12.3256C28.9195 12.5007 28.8986 12.6153 28.8986 12.6737C28.8986 12.7321 28.8923 12.8259 28.8797 12.9551L26.2821 12.9363H24.385C24.385 12.7946 24.3934 12.6258 24.4122 12.4319C24.431 12.2381 24.5231 11.9087 24.6883 11.4439C24.8535 10.9791 25.0773 10.5455 25.3597 10.1453C26.6481 8.34857 28.8044 7.4502 31.8246 7.4502C32.6591 7.4502 33.4246 7.50439 34.1169 7.61486C34.8113 7.72534 35.3907 7.86707 35.8571 8.04216C36.3235 8.21725 36.7376 8.42986 37.1015 8.68207C37.4655 8.93429 37.7499 9.18858 37.9591 9.44705C38.1682 9.70551 38.3355 9.98899 38.4652 10.2996C38.5949 10.6101 38.6806 10.8915 38.7225 11.1417C38.7643 11.3918 38.7873 11.6482 38.7873 11.9066C38.7873 12.3068 38.7392 12.682 38.6409 13.0301C38.5426 13.3782 38.4234 13.6825 38.2811 13.941C38.1389 14.1995 37.9423 14.4454 37.6913 14.6768C37.4404 14.9082 37.2061 15.1041 36.9907 15.2583C36.7752 15.4126 36.4908 15.5585 36.1331 15.694C35.7755 15.8295 35.4785 15.9399 35.2401 16.0233C34.9995 16.1067 34.6816 16.1922 34.2821 16.2755C33.8827 16.3589 33.5794 16.4214 33.3702 16.459C33.1611 16.4986 32.8599 16.5486 32.4667 16.6132L32.4709 16.6236Z" fill="white"/>
<path d="M40.2261 7.49194H49.3075C49.5522 7.49194 49.7865 7.4982 50.0082 7.5107C50.2299 7.52321 50.5394 7.5649 50.9389 7.63577C51.3384 7.70664 51.7002 7.81086 52.0265 7.94634C52.3507 8.08183 52.6979 8.27985 53.0681 8.53831C53.4383 8.79678 53.7457 9.10318 53.9988 9.45961C54.2498 9.81604 54.4589 10.2746 54.6242 10.8353C54.7894 11.3981 54.873 12.0255 54.873 12.7154C54.873 13.4054 54.7957 14.0369 54.643 14.606C54.4903 15.175 54.2895 15.6503 54.0448 16.0317C53.798 16.4132 53.5031 16.7487 53.1601 17.0406C52.8171 17.3303 52.4782 17.5575 52.1478 17.718C51.8152 17.8806 51.4701 18.0077 51.1062 18.1057C50.7444 18.2016 50.4348 18.2683 50.1755 18.2995C49.9182 18.3329 49.6777 18.3475 49.456 18.3475H44.52V21.101H40.2282V7.49194H40.2261ZM49.1778 14.335C50.3072 14.335 50.872 13.8431 50.872 12.8613C50.872 12.6425 50.8448 12.4549 50.7883 12.2986C50.7318 12.1443 50.6503 12.0172 50.5394 11.9213C50.4285 11.8233 50.3177 11.7441 50.2068 11.6795C50.096 11.6149 49.9642 11.5732 49.8115 11.5544C49.6568 11.5357 49.5313 11.519 49.433 11.5065C49.3347 11.494 49.2238 11.4877 49.1025 11.4877H44.5158V14.3371H49.1757L49.1778 14.335Z" fill="white"/>
<path d="M71.449 17.2823C71.449 17.9285 71.3842 18.4746 71.2545 18.9207C71.1249 19.3667 70.899 19.7607 70.5727 20.1025C70.2464 20.4444 69.7905 20.6966 69.2006 20.8592C68.6108 21.0218 67.8809 21.101 67.0087 21.101H56.3252V7.49194H65.5363C66.4085 7.49194 67.1489 7.56281 67.7554 7.70455C68.364 7.84629 68.8472 8.06932 69.2111 8.37364C69.5729 8.67796 69.8344 9.03231 69.9933 9.44085C70.1523 9.84939 70.2339 10.3351 70.2339 10.9041C70.2339 12.1318 69.939 13.0177 69.3491 13.5596C69.6064 13.6367 69.849 13.7576 70.077 13.9181C70.305 14.0786 70.5288 14.2996 70.7484 14.5768C70.9701 14.854 71.1416 15.2271 71.265 15.692C71.3884 16.1568 71.449 16.6883 71.449 17.2823ZM60.6358 11.273V12.5716H65.4798C65.6513 12.5716 65.7956 12.507 65.9128 12.3778C66.0299 12.2485 66.0885 12.0943 66.0885 11.9129C66.0885 11.7316 66.0299 11.5794 65.9128 11.4565C65.7956 11.3335 65.6513 11.273 65.4798 11.273H60.6358ZM66.9355 17.3407C67.1196 17.3407 67.2723 17.2761 67.3957 17.1469C67.5191 17.0176 67.5797 16.8592 67.5797 16.6716C67.5797 16.484 67.5191 16.3256 67.3957 16.1964C67.2723 16.0671 67.1196 16.0025 66.9355 16.0025H60.6358V17.3407H66.9355Z" fill="#FFB700"/>
<path d="M73.0532 7.49194H87.33L85.2385 11.271H77.345V12.4736H86.7025V16.0984H77.345V17.3199H87.33V21.0989H73.0532V7.49194Z" fill="#FFB700"/>
<path d="M88.9294 7.49194H101.822V11.3648H97.5214V21.101H93.2484V11.3648H86.8379L88.9294 7.49194Z" fill="#FFB700"/>
<path d="M0 0.638428V27.548H13.5657L12.1727 29.351L15.95 29.3614L18.5498 25.4636L15.95 21.5866L12.1727 21.5762L13.5657 23.3792H4.18306V4.80722H104.817V23.3792H24.5043L21.16 18.3391L17.6713 20.6403L22.256 27.548H109V0.638428H0Z" fill="white"/>
</g>
<defs>
<clipPath id="clip0_319_7996">
<rect width="109" height="28.723" fill="white" transform="translate(0 0.638428)"/>
</clipPath>
</defs>
</svg>
